<svg width="19" height="18" viewBox="0 0 19 18" fill="none" xmlns="http://www.w3.org/2000/svg">
<path d="M6.31563 17.9344C6.60156 17.8125 6.8 17.5297 6.8 17.2V15.0406C6.8 14.9609 6.80625 14.8797 6.81563 14.7953C6.81094 14.7969 6.80625 14.7984 6.8 14.8C6.8 14.8 5.6 14.8 5.35938 14.8C4.75938 14.8 4.24062 14.5594 4 14.0797C3.72031 13.5594 3.6 12.6797 2.87969 12.2C2.75938 12.1203 2.84062 12 3.07969 12C3.32031 12.0406 3.84063 12.3594 4.15938 12.8C4.52031 13.2406 4.87969 13.6 5.52031 13.6C6.51406 13.6 7.04844 13.55 7.36875 13.3781C7.74219 12.8219 8.25938 12.4 8.8 12.4V12.3906C6.53281 12.3172 5.08438 11.5641 4.40938 10.4C2.94375 10.4172 1.66719 10.5625 0.939062 10.6828C0.915625 10.5516 0.895312 10.4203 0.878125 10.2875C1.59688 10.1703 2.81562 10.0297 4.21719 10.0031C4.17188 9.89219 4.13281 9.77812 4.1 9.6625C2.69531 9.59219 1.48438 9.64688 0.825 9.70156C0.817188 9.56875 0.80625 9.43594 0.804688 9.30156C1.46406 9.24844 2.64375 9.19375 4.0125 9.25781C3.98125 9.05781 3.96094 8.85313 3.96094 8.64062C3.96094 7.96094 4.2 7.24062 4.64062 6.64062C4.44062 5.96094 4.16094 4.52031 4.72031 4C5.8 4 6.56094 4.52031 6.92031 4.84062C7.6 4.55938 8.35938 4.4 9.2 4.4C10.0406 4.4 10.8 4.55938 11.4406 4.84062C11.8 4.52031 12.5594 4 13.6406 4C14.2406 4.55938 13.9203 6 13.7203 6.64062C14.1594 7.24062 14.4 7.92031 14.3594 8.64062C14.3594 8.83438 14.3422 9.02031 14.3156 9.20312C15.7156 9.13438 16.9266 9.19063 17.5969 9.24375C17.5969 9.37969 17.5844 9.51094 17.5766 9.64375C16.9094 9.58906 15.6672 9.53125 14.2344 9.60781C14.1984 9.74219 14.1547 9.87344 14.1031 10C15.5219 10.0188 16.7703 10.1562 17.5234 10.2766C17.5063 10.4094 17.4859 10.5406 17.4625 10.6703C16.6969 10.5484 15.3938 10.4047 13.9109 10.3984C13.2453 11.5484 11.8234 12.3 9.6 12.3875V12.4C10.6406 12.4 11.6 13.9594 11.6 15.0406V17.2C11.6 17.5297 11.7984 17.8125 12.0844 17.9344C15.7484 16.7219 18.4 13.2656 18.4 9.2C18.4 4.12656 14.2734 0 9.2 0C4.12656 0 0 4.12656 0 9.2C0 13.2656 2.65156 16.7219 6.31563 17.9344Z" fill="white"/>
</svg>
