<svg width="24" height="24" viewBox="0 0 24 24" fill="none" xmlns="http://www.w3.org/2000/svg">
<path d="M7.40204 2.1851C5.17804 3.1691 3.78704 4.7681 3.00204 5.9321C2.15004 7.2001 1.81804 8.2511 1.81804 8.2601C1.81604 8.2961 1.82304 8.2431 1.81804 8.2791C1.57204 8.9791 1.34504 10.0771 1.34504 10.0861C1.08004 11.4301 1.20304 12.6791 1.20304 12.6981L1.23204 12.9441C1.25802 12.6047 1.30209 12.2668 1.36404 11.9321C1.38304 11.7991 1.73404 9.9161 3.05804 8.4211C3.20004 8.2031 4.73304 6.1881 7.55304 6.1881C8.15904 6.1881 8.79304 6.2821 9.42704 6.4711H9.44604C9.48404 6.4811 10.316 6.7841 10.619 6.9351C10.903 7.0771 11.405 7.2951 11.414 7.2951H11.434C14.149 8.6201 16.496 9.0451 16.515 9.0551C17.187 9.1691 17.793 9.2251 18.332 9.2251C19.411 9.2251 20.187 8.9891 20.594 8.5351C20.831 8.2751 20.901 7.9761 20.887 7.7211C20.906 6.7361 20.102 5.6771 19.42 4.9671C18.9494 4.47161 18.4331 4.02162 17.878 3.6231C15.834 2.1091 13.648 1.3431 11.358 1.3431C9.01104 1.3521 7.42104 2.1751 7.40204 2.1851V2.1851ZM14.821 4.8441C15.105 4.8441 15.332 5.0711 15.332 5.3541C15.3324 5.42136 15.3195 5.48803 15.294 5.55027C15.2684 5.6125 15.2308 5.66906 15.1833 5.71666C15.1358 5.76427 15.0793 5.80199 15.0171 5.82764C14.9549 5.85329 14.8883 5.86636 14.821 5.8661C14.7539 5.86636 14.6873 5.85332 14.6252 5.82774C14.5631 5.80215 14.5066 5.76452 14.4591 5.71702C14.4116 5.66951 14.374 5.61308 14.3484 5.55096C14.3228 5.48884 14.3098 5.42227 14.31 5.3551C14.31 5.0711 14.537 4.8441 14.821 4.8441V4.8441ZM8.21603 2.9041C8.29103 2.9041 8.33904 2.9231 8.35804 2.9231L11.585 3.9261L11.462 4.1811L9.91903 3.6991C9.37103 3.5291 8.79903 3.3481 8.26303 3.1791C8.25303 3.1791 8.23503 3.1691 8.21603 3.1691C8.19603 3.1691 8.16804 3.1691 8.14904 3.1791C7.85604 3.2541 7.05204 3.5381 6.81504 3.9641C6.78337 4.02122 6.76367 4.0842 6.75714 4.14918C6.7506 4.21417 6.75737 4.27981 6.77704 4.3421C6.77704 4.3521 6.94704 4.8821 7.37304 5.4301L9.51303 5.3261L10.941 5.2601L10.799 5.5531L7.25004 5.7231C6.72004 5.0801 6.51204 4.4371 6.51204 4.4371C6.18104 3.3961 8.08304 2.9121 8.08304 2.9121C8.12804 2.9111 8.17303 2.9061 8.21603 2.9021V2.9041ZM19.439 18.6511C21.616 17.7051 22.543 16.0671 22.543 16.0671C24.578 13.2951 23.887 10.3701 23.887 10.3701C22.591 13.1901 21.407 13.9661 21.407 13.9661C24.597 9.11209 21.427 6.1781 21.427 6.1781C22.723 8.9421 21 12.3101 21 12.3101C19.552 15.3581 17.498 16.4461 17.498 16.4461C19.788 16.8721 21.473 15.3291 21.473 15.3291C18.189 18.8781 14.631 18.7081 14.631 18.7081C16.126 20.3831 18.369 20.2411 18.369 20.2411C15.435 20.9311 12.681 19.9571 10.419 18.0741C9.99403 17.7241 9.58703 17.3441 9.20903 16.9381C9.06503 16.7881 8.92904 16.6281 8.79204 16.4741C8.74504 18.2251 10.571 19.8531 10.571 19.8531C8.28104 18.9061 7.23104 16.8531 7.23104 16.8531C7.23104 16.8531 5.68804 14.2221 6.80504 11.2221C7.91204 8.2601 11.224 7.5961 11.309 7.5771C11.0387 7.45247 10.7674 7.33014 10.495 7.2101C10.202 7.0681 9.35004 6.7551 9.35004 6.7551C8.76681 6.57859 8.16136 6.48633 7.55204 6.4811C4.76004 6.4811 3.27504 8.59109 3.27504 8.59109C1.95904 10.0681 1.64704 11.9791 1.64704 11.9791C1.27704 13.8061 1.67504 15.7271 1.67504 15.7271C1.67504 15.7271 1.71304 15.8781 1.72304 15.9441C2.02604 16.6641 2.41304 17.3741 2.86804 18.0451C5.32804 21.7171 9.32203 22.9851 9.32203 22.9851C15.236 24.9911 19.277 22.0391 19.277 22.0391C22.997 19.4841 23.744 16.5311 23.744 16.5311C20.734 18.8691 19.438 18.6511 19.438 18.6511H19.439ZM1.30704 14.7901C1.14419 14.2062 1.02388 13.6113 0.947035 13.0101C0.937035 12.9121 0.922035 12.8031 0.910035 12.7081C0.910035 12.7081 0.777035 11.4211 1.06104 10.0111C1.06104 10.0111 1.07104 9.9731 1.08104 9.9161C1.11704 9.7131 1.17404 9.5091 1.21304 9.3391C1.29804 8.9691 1.42104 8.5251 1.54304 8.1651C1.54304 8.1651 2.85004 3.8781 7.26904 1.9201C7.26904 1.9201 8.79304 1.1151 11.092 1.0581C10.9355 0.897987 10.7648 0.752392 10.582 0.623095C9.50204 -0.0969046 7.89404 -0.332905 6.91904 0.680095C6.62604 0.983095 6.37904 1.3141 6.10504 1.6171C5.79304 1.9571 5.41504 2.2411 4.97904 2.4021C4.60104 2.5441 4.22204 2.5161 3.83404 2.5821C3.43704 2.6481 3.03004 2.7901 2.70804 3.0461C2.35804 3.3301 2.21604 3.7081 2.17804 4.1431C2.14004 4.4841 2.15004 4.8341 2.13104 5.1751C2.08304 6.1781 1.76104 6.4621 1.04204 7.0201C0.739035 7.2471 0.484035 7.5501 0.295035 7.8721C-0.272965 8.8751 0.635035 9.9161 0.683035 10.9291C0.693035 11.1371 0.673035 11.3451 0.598035 11.5441C0.522035 11.7611 0.370035 11.9041 0.248035 12.0841C0.0770353 12.3201 -0.0369647 12.6041 0.0110353 12.8971C0.0580353 13.1901 0.210035 13.4651 0.351035 13.7201C0.626035 14.1751 0.967035 14.5821 1.32604 14.9701C1.33804 14.9861 1.36404 15.0101 1.38004 15.0221L1.30704 14.7901V14.7901Z" fill="#FF4A57"/>
</svg>
