<svg width="16" height="16" viewBox="0 0 16 16" fill="none" xmlns="http://www.w3.org/2000/svg">
<g clip-path="url(#clip0_10_13)">
<path d="M13.4998 10.0002H12.4998C12.3672 10.0002 12.24 10.0529 12.1462 10.1466C12.0525 10.2404 11.9998 10.3676 11.9998 10.5002V14.0002H1.99979V4.0002H6.49979C6.63239 4.0002 6.75957 3.94752 6.85334 3.85375C6.94711 3.75998 6.99979 3.63281 6.99979 3.5002V2.5002C6.99979 2.36759 6.94711 2.24041 6.85334 2.14665C6.75957 2.05288 6.63239 2.0002 6.49979 2.0002H1.49979C1.10196 2.0002 0.720431 2.15823 0.439126 2.43954C0.157822 2.72084 -0.000213623 3.10237 -0.000213623 3.5002L-0.000213623 14.5002C-0.000213623 14.898 0.157822 15.2796 0.439126 15.5609C0.720431 15.8422 1.10196 16.0002 1.49979 16.0002H12.4998C12.8976 16.0002 13.2791 15.8422 13.5604 15.5609C13.8418 15.2796 13.9998 14.898 13.9998 14.5002V10.5002C13.9998 10.3676 13.9471 10.2404 13.8533 10.1466C13.7596 10.0529 13.6324 10.0002 13.4998 10.0002ZM15.2498 0.000198364H11.2498C10.582 0.000198364 10.2482 0.809886 10.7185 1.28145L11.8351 2.39801L4.21854 10.0118C4.14862 10.0814 4.09314 10.1642 4.05528 10.2554C4.01743 10.3466 3.99794 10.4443 3.99794 10.543C3.99794 10.6417 4.01743 10.7395 4.05528 10.8306C4.09314 10.9218 4.14862 11.0046 4.21854 11.0743L4.92697 11.7814C4.99665 11.8514 5.07945 11.9068 5.17061 11.9447C5.26177 11.9826 5.35951 12.002 5.45822 12.002C5.55693 12.002 5.65467 11.9826 5.74584 11.9447C5.837 11.9068 5.9198 11.8514 5.98947 11.7814L13.6023 4.16645L14.7185 5.28145C15.1873 5.7502 15.9998 5.42207 15.9998 4.7502V0.750198C15.9998 0.551286 15.9208 0.360521 15.7801 0.219868C15.6395 0.079216 15.4487 0.000198364 15.2498 0.000198364V0.000198364Z" fill="#F8F8F8"/>
</g>
<defs>
<clipPath id="clip0_10_13">
<rect width="16" height="16" fill="white" transform="translate(-0.000213623 0.000198364)"/>
</clipPath>
</defs>
</svg>
