<svg width="210" height="70" viewBox="0 0 210 70" fill="none" xmlns="http://www.w3.org/2000/svg">
<path d="M18.684 22.728V27.66H8.388V32.988H16.092V37.776H8.388V48H2.232V22.728H18.684ZM28.0755 21.36V48H21.9195V21.36H28.0755ZM46.5705 37.92C46.5705 35.856 46.9545 34.044 47.7225 32.484C48.5145 30.924 49.5825 29.724 50.9265 28.884C52.2705 28.044 53.7705 27.624 55.4265 27.624C56.7465 27.624 57.9465 27.9 59.0265 28.452C60.1305 29.004 60.9945 29.748 61.6185 30.684V21.36H67.7745V48H61.6185V45.12C61.0425 46.08 60.2145 46.848 59.1345 47.424C58.0785 48 56.8425 48.288 55.4265 48.288C53.7705 48.288 52.2705 47.868 50.9265 47.028C49.5825 46.164 48.5145 44.952 47.7225 43.392C46.9545 41.808 46.5705 39.984 46.5705 37.92ZM61.6185 37.956C61.6185 36.42 61.1865 35.208 60.3225 34.32C59.4825 33.432 58.4505 32.988 57.2265 32.988C56.0025 32.988 54.9585 33.432 54.0945 34.32C53.2545 35.184 52.8345 36.384 52.8345 37.92C52.8345 39.456 53.2545 40.68 54.0945 41.592C54.9585 42.48 56.0025 42.924 57.2265 42.924C58.4505 42.924 59.4825 42.48 60.3225 41.592C61.1865 40.704 61.6185 39.492 61.6185 37.956ZM91.1641 37.632C91.1641 38.208 91.1281 38.808 91.0561 39.432H77.1241C77.2201 40.68 77.6161 41.64 78.3121 42.312C79.0321 42.96 79.9081 43.284 80.9401 43.284C82.4761 43.284 83.5441 42.636 84.1441 41.34H90.6961C90.3601 42.66 89.7481 43.848 88.8601 44.904C87.9961 45.96 86.9041 46.788 85.5841 47.388C84.2641 47.988 82.7881 48.288 81.1561 48.288C79.1881 48.288 77.4361 47.868 75.9001 47.028C74.3641 46.188 73.1641 44.988 72.3001 43.428C71.4361 41.868 71.0041 40.044 71.0041 37.956C71.0041 35.868 71.4241 34.044 72.2641 32.484C73.1281 30.924 74.3281 29.724 75.8641 28.884C77.4001 28.044 79.1641 27.624 81.1561 27.624C83.1001 27.624 84.8281 28.032 86.3401 28.848C87.8521 29.664 89.0281 30.828 89.8681 32.34C90.7321 33.852 91.1641 35.616 91.1641 37.632ZM84.8641 36.012C84.8641 34.956 84.5041 34.116 83.7841 33.492C83.0641 32.868 82.1641 32.556 81.0841 32.556C80.0521 32.556 79.1761 32.856 78.4561 33.456C77.7601 34.056 77.3281 34.908 77.1601 36.012H84.8641ZM103.448 42.24L107.804 27.912H114.356L107.228 48H99.6317L92.5037 27.912H99.0917L103.448 42.24Z" fill="white"/>
<circle opacity="0.9" cx="38.5" cy="43.5" r="4.5" fill="#FF4A57"/>
</svg>
