<svg width="400" height="346" viewBox="0 0 400 346" fill="none" xmlns="http://www.w3.org/2000/svg">
<g clip-path="url(#clip0_251_2)">
<path d="M218.335 96.1356C238.677 96.1356 255.167 79.6456 255.167 59.3043C255.167 38.963 238.677 22.4731 218.335 22.4731C197.994 22.4731 181.504 38.963 181.504 59.3043C181.504 79.6456 197.994 96.1356 218.335 96.1356Z" fill="#A0616A"/>
<path d="M190.845 77.7199C190.845 77.7199 197.784 130.031 187.109 135.903C176.433 141.774 250.629 142.308 250.629 142.308C250.629 142.308 234.082 96.9362 241.555 83.0578L190.845 77.7199Z" fill="#A0616A"/>
<path d="M304.808 142.573L298.637 170.671L285.59 230.118L285.199 233.373L280.697 271.063L277.702 296.101L275.693 312.92C263.482 319.196 254.632 323.528 254.632 323.528C254.632 323.528 253.871 319.712 252.644 314.828C244.074 317.398 228.217 321.66 214.779 322.511C219.672 327.966 221.921 333.09 218.871 336.871C209.665 348.271 171.66 324.39 158.367 315.484C158.057 317.617 157.94 319.772 158.016 321.925L147.844 314.102L148.85 296.101L150.548 265.644L152.682 227.448C152.009 225.813 151.445 224.135 150.994 222.425C147.879 211.346 144.097 189.223 141.197 170.671C138.863 155.74 137.11 143.124 136.74 140.439C136.69 140.088 136.665 139.908 136.665 139.908L192.976 115.025C196.978 124.306 215.665 127.096 215.665 127.096C231.147 126.029 243.283 117.865 243.283 117.865L304.808 142.573Z" fill="#D0CDE1"/>
<path d="M258.905 312.855C258.905 312.855 256.52 313.671 252.644 314.828C244.074 317.398 228.217 321.66 214.779 322.511C203.209 323.253 193.432 321.47 191.644 313.922C190.878 310.676 191.965 308.007 194.334 305.813C201.406 299.257 219.878 296.908 234.528 296.101C238.665 295.876 242.491 295.771 245.677 295.731C251.086 295.66 254.632 295.771 254.632 295.771L254.717 296.101L258.905 312.855Z" fill="#A0616A"/>
<path d="M187.695 24.4654L180.809 21.7084C180.809 21.7084 195.208 5.85582 215.242 7.23436L209.607 1.03111C209.607 1.03111 223.38 -4.48278 235.901 9.99127C242.483 17.5999 250.099 26.5436 254.846 36.6185H262.221L259.143 43.396L269.916 50.1735L258.858 48.9561C259.517 52.6676 259.619 56.4566 259.159 60.1979C258.684 63.9404 256.774 67.3522 253.832 69.7132C253.832 69.7132 245.292 52.035 245.292 49.2781V56.1705C245.292 56.1705 238.405 49.9673 238.405 45.8319L234.649 50.6566L232.771 43.0749L209.607 50.6566L213.363 44.4534L198.964 46.5212L204.599 38.9394C204.599 38.9394 188.322 47.8996 187.695 55.4813C187.069 63.0629 182.305 70.247 182.305 70.247C182.305 70.247 169.54 34.804 187.695 24.4654Z" fill="#2F2E41"/>
<path d="M344.842 271.749C341.09 275.816 331.794 281.942 320.525 288.573C316.333 291.037 311.87 293.577 307.317 296.101C296.454 302.126 285.079 308.097 275.693 312.92C263.482 319.196 254.632 323.528 254.632 323.528C254.632 323.528 253.871 319.712 252.644 314.828C251.001 308.292 248.527 299.843 245.947 296.101C245.857 295.971 245.767 295.851 245.677 295.73C244.925 294.744 244.169 294.168 243.423 294.168L280.697 271.063L296.804 261.076L285.2 233.374L270.645 198.624L279.43 170.671L288.26 142.573H304.808C304.808 142.573 310.288 154.533 317.295 171.212C318.341 173.706 319.423 176.306 320.525 178.99C334.94 214.05 352.911 263.009 344.842 271.749Z" fill="#D0CDE1"/>
<path d="M218.871 336.871C209.665 348.271 171.66 324.39 158.367 315.484C155.472 313.546 153.749 312.319 153.749 312.319L165.91 296.101L169.761 290.967C169.761 290.967 173.207 292.795 178.301 295.771C178.486 295.881 178.672 295.991 178.862 296.101C183.255 298.681 188.769 302.051 194.334 305.813C202.012 311.007 209.775 316.932 214.779 322.511C219.672 327.966 221.921 333.09 218.871 336.871Z" fill="#A0616A"/>
<path d="M178.301 295.771C176.942 295.765 175.585 295.876 174.244 296.101C162.729 298.08 159.334 308.502 158.367 315.484C158.058 317.617 157.94 319.772 158.016 321.925L147.844 314.102L144.138 311.252C135.217 308.142 127.269 302.617 120.377 296.101C114.398 290.348 109.035 283.988 104.374 277.124C99.7322 270.358 95.594 263.26 91.9931 255.887C90.9883 253.83 90.4482 251.577 90.411 249.287C90.3738 246.998 90.8404 244.728 91.7777 242.639L104.374 214.566L122.786 173.536C122.921 172.559 123.07 171.604 123.232 170.671C126.883 149.735 136.665 140.439 136.665 140.439H144.138L149.136 170.671L155.347 208.23L150.994 222.425L140.937 255.206L150.549 265.644L178.301 295.771Z" fill="#D0CDE1"/>
<path d="M186.759 208.26L193.147 215.714C195.521 215.261 197.999 214.729 200.552 214.132L198.717 208.26L203.204 213.495C230.249 206.843 263.771 193.91 263.771 193.91C263.771 193.91 227.58 196.564 200.558 190.66C188.602 188.048 176.301 193.975 171.395 205.186C168.543 211.703 168.991 217.349 179.105 217.349C182.523 217.29 185.931 216.97 189.299 216.39L186.759 208.26Z" fill="#FF4A57"/>
<path d="M332.396 330.761V333.801C332.397 334.635 332.243 335.463 331.94 336.24C331.805 336.587 331.643 336.922 331.454 337.242C330.857 338.244 330.01 339.073 328.996 339.649C327.982 340.225 326.835 340.528 325.669 340.527H102.01C100.844 340.528 99.6976 340.225 98.6834 339.649C97.6693 339.073 96.8222 338.244 96.2253 337.242C96.0365 336.922 95.874 336.587 95.7395 336.24C95.4366 335.463 95.282 334.635 95.2837 333.801V330.761C95.2835 329.877 95.4573 329.002 95.7953 328.186C96.1332 327.37 96.6287 326.628 97.2533 326.004C97.878 325.379 98.6196 324.884 99.4358 324.546C100.252 324.208 101.127 324.034 102.01 324.034H114.902V322.617C114.902 322.58 114.91 322.543 114.924 322.509C114.938 322.475 114.958 322.444 114.984 322.418C115.01 322.392 115.041 322.371 115.075 322.357C115.11 322.343 115.146 322.336 115.183 322.336H121.909C121.946 322.336 121.983 322.343 122.017 322.357C122.051 322.371 122.082 322.392 122.108 322.418C122.134 322.444 122.155 322.475 122.169 322.509C122.183 322.543 122.19 322.58 122.19 322.617V324.034H126.392V322.617C126.392 322.58 126.399 322.543 126.413 322.509C126.427 322.475 126.448 322.444 126.474 322.418C126.5 322.392 126.531 322.371 126.565 322.357C126.599 322.343 126.636 322.336 126.673 322.336H133.399C133.436 322.336 133.472 322.343 133.507 322.357C133.541 322.371 133.572 322.392 133.598 322.418C133.624 322.444 133.644 322.475 133.658 322.509C133.672 322.543 133.68 322.58 133.68 322.617V324.034H137.887V322.617C137.887 322.58 137.894 322.543 137.908 322.509C137.922 322.475 137.943 322.444 137.969 322.418C137.995 322.392 138.026 322.371 138.06 322.357C138.094 322.343 138.13 322.336 138.167 322.336H144.894C144.931 322.336 144.967 322.343 145.001 322.357C145.035 322.371 145.066 322.392 145.092 322.418C145.118 322.444 145.139 322.475 145.153 322.509C145.167 322.543 145.174 322.58 145.174 322.617V324.034H149.377V322.617C149.376 322.58 149.384 322.543 149.398 322.509C149.412 322.475 149.432 322.444 149.459 322.418C149.485 322.392 149.516 322.371 149.55 322.357C149.584 322.343 149.62 322.336 149.657 322.336H156.384C156.42 322.336 156.457 322.343 156.491 322.357C156.525 322.371 156.556 322.392 156.582 322.418C156.608 322.444 156.629 322.475 156.643 322.509C156.657 322.543 156.664 322.58 156.664 322.617V324.034H160.866V322.617C160.866 322.58 160.873 322.543 160.887 322.509C160.902 322.475 160.922 322.444 160.948 322.418C160.974 322.392 161.005 322.371 161.039 322.357C161.073 322.343 161.11 322.336 161.147 322.336H167.873C167.91 322.336 167.947 322.343 167.981 322.357C168.015 322.371 168.046 322.392 168.072 322.418C168.098 322.444 168.118 322.475 168.133 322.509C168.147 322.543 168.154 322.58 168.154 322.617V324.034H172.361V322.617C172.361 322.58 172.368 322.543 172.382 322.509C172.396 322.475 172.417 322.444 172.443 322.418C172.469 322.392 172.5 322.371 172.534 322.357C172.568 322.343 172.605 322.336 172.641 322.336H179.368C179.405 322.336 179.441 322.343 179.475 322.357C179.509 322.371 179.54 322.392 179.566 322.418C179.593 322.444 179.613 322.475 179.627 322.509C179.641 322.543 179.649 322.58 179.648 322.617V324.034H183.851V322.617C183.851 322.58 183.858 322.543 183.872 322.509C183.886 322.475 183.907 322.444 183.933 322.418C183.959 322.392 183.99 322.371 184.024 322.357C184.058 322.343 184.094 322.336 184.131 322.336H236.822C236.858 322.336 236.895 322.343 236.929 322.357C236.963 322.371 236.994 322.392 237.02 322.418C237.046 322.444 237.067 322.475 237.081 322.509C237.095 322.543 237.102 322.58 237.102 322.617V324.034H241.309V322.617C241.309 322.58 241.316 322.543 241.331 322.509C241.345 322.475 241.365 322.444 241.391 322.418C241.417 322.392 241.448 322.371 241.482 322.357C241.516 322.343 241.553 322.336 241.59 322.336H248.316C248.391 322.337 248.461 322.367 248.514 322.419C248.566 322.472 248.596 322.542 248.597 322.617V324.034H252.799V322.617C252.799 322.58 252.806 322.543 252.82 322.509C252.834 322.475 252.855 322.444 252.881 322.418C252.907 322.392 252.938 322.371 252.972 322.357C253.006 322.343 253.043 322.336 253.08 322.336H259.806C259.843 322.336 259.879 322.343 259.913 322.357C259.948 322.371 259.978 322.392 260.005 322.418C260.031 322.444 260.051 322.475 260.065 322.509C260.079 322.543 260.087 322.58 260.087 322.617V324.034H264.289V322.617C264.289 322.58 264.296 322.543 264.31 322.509C264.324 322.475 264.345 322.444 264.371 322.418C264.397 322.392 264.428 322.371 264.462 322.357C264.496 322.343 264.532 322.336 264.569 322.336H271.296C271.333 322.336 271.369 322.343 271.403 322.357C271.437 322.371 271.468 322.392 271.494 322.418C271.52 322.444 271.541 322.475 271.555 322.509C271.569 322.543 271.576 322.58 271.576 322.617V324.034H275.783V322.617C275.783 322.58 275.791 322.543 275.805 322.509C275.819 322.475 275.839 322.444 275.866 322.418C275.892 322.392 275.923 322.371 275.957 322.357C275.991 322.343 276.027 322.336 276.064 322.336H282.791C282.864 322.337 282.934 322.367 282.986 322.42C283.038 322.472 283.066 322.543 283.066 322.617V324.034H287.273V322.617C287.273 322.58 287.28 322.543 287.294 322.509C287.309 322.475 287.329 322.444 287.355 322.418C287.381 322.392 287.412 322.371 287.446 322.357C287.48 322.343 287.517 322.336 287.554 322.336H294.28C294.317 322.336 294.354 322.343 294.388 322.357C294.422 322.371 294.453 322.392 294.479 322.418C294.505 322.444 294.525 322.475 294.539 322.509C294.554 322.543 294.561 322.58 294.561 322.617V324.034H298.763V322.617C298.763 322.58 298.77 322.543 298.784 322.509C298.798 322.475 298.819 322.444 298.845 322.418C298.871 322.392 298.902 322.371 298.936 322.357C298.97 322.343 299.007 322.336 299.043 322.336H305.77C305.807 322.336 305.843 322.343 305.877 322.357C305.911 322.371 305.942 322.392 305.968 322.418C305.995 322.444 306.015 322.475 306.029 322.509C306.043 322.543 306.051 322.58 306.05 322.617V324.034H325.669C326.553 324.034 327.427 324.208 328.244 324.546C329.06 324.884 329.801 325.379 330.426 326.004C331.051 326.628 331.546 327.37 331.884 328.186C332.222 329.002 332.396 329.877 332.396 330.761Z" fill="#3F3D56"/>
<path d="M397.432 336.24H30.302V337.242H397.432V336.24Z" fill="#3F3D56"/>
<path d="M314.387 202.726H231.022V201.008H193.222V202.726H109.513C108.018 202.726 106.584 203.32 105.526 204.378C104.469 205.435 103.875 206.87 103.875 208.365V322.517C103.875 324.012 104.469 325.447 105.526 326.504C106.584 327.562 108.018 328.156 109.513 328.156H314.387C315.882 328.156 317.317 327.562 318.374 326.504C319.432 325.447 320.026 324.012 320.026 322.517V208.365C320.026 207.625 319.88 206.891 319.597 206.207C319.313 205.523 318.898 204.901 318.374 204.378C317.851 203.854 317.229 203.439 316.545 203.155C315.861 202.872 315.127 202.726 314.387 202.726Z" fill="#3F3D56"/>
<path d="M212.114 255.101C219.029 255.101 224.636 249.495 224.636 242.579C224.636 235.664 219.029 230.058 212.114 230.058C205.199 230.058 199.593 235.664 199.593 242.579C199.593 249.495 205.199 255.101 212.114 255.101Z" stroke="#D0CDE1" stroke-width="2" stroke-miterlimit="10"/>
<path d="M208.107 259.609C215.023 259.609 220.629 254.002 220.629 247.087C220.629 240.172 215.023 234.566 208.107 234.566C201.192 234.566 195.586 240.172 195.586 247.087C195.586 254.002 201.192 259.609 208.107 259.609Z" fill="#FF4A57"/>
<path d="M54.3163 331.18H40.2922V345.204H54.3163V331.18Z" fill="#D0CDE1"/>
<path d="M45.8037 320.161V337.19H62.8329V320.161H45.8037ZM62.0917 336.449H46.54V320.902H62.0917V336.449Z" fill="#3F3D56"/>
<path d="M378.873 331.18H364.849V345.204H378.873V331.18Z" fill="#D0CDE1"/>
<path d="M370.36 320.161V337.19H387.39V320.161H370.36ZM386.648 336.449H371.097V320.902H386.648V336.449Z" fill="#3F3D56"/>
<path d="M47.3712 115.254C69.3181 115.254 87.1096 97.4629 87.1096 75.516C87.1096 53.5691 69.3181 35.7776 47.3712 35.7776C25.4243 35.7776 7.63281 53.5691 7.63281 75.516C7.63281 97.4629 25.4243 115.254 47.3712 115.254Z" fill="#FF4A57"/>
<path d="M61.2195 28.2936C57.6214 27.8359 53.9798 27.8359 50.3817 28.2936C42.3657 29.346 34.8199 32.676 28.6397 37.8883C22.4594 43.1006 17.9041 49.9764 15.5143 57.6999C14.4274 61.2198 13.8119 64.8682 13.6839 68.5498C13.6659 69.0615 13.6538 69.5793 13.6538 70.0971C13.665 81.2717 18.109 91.9855 26.0107 99.8871C33.9123 107.789 44.626 112.233 55.8006 112.244C56.6977 112.244 57.5948 112.214 58.4799 112.16C60.5576 112.029 62.6225 111.743 64.6575 111.305C74.3751 109.215 83.0416 103.758 89.1263 95.8987C95.2111 88.039 98.3226 78.2819 97.9113 68.3507C97.5 58.4194 93.5923 48.953 86.8785 41.6234C80.1646 34.2938 71.0766 29.5726 61.2195 28.2936H61.2195ZM68.9925 108.86H68.9865C65.5922 110.018 62.0591 110.721 58.4799 110.949C57.5948 111.01 56.6977 111.04 55.8006 111.04C44.946 111.026 34.5398 106.709 26.8644 99.0333C19.1891 91.3579 14.8712 80.9517 14.858 70.0971C14.858 69.5793 14.87 69.0615 14.8881 68.5498C15.302 57.9714 19.7918 47.9632 27.4176 40.6202C35.0434 33.2771 45.2141 29.1686 55.8006 29.1545C65.5004 29.1551 74.885 32.5992 82.2825 38.8733C89.68 45.1474 94.6098 53.844 96.1936 63.4137C97.7775 72.9833 95.9125 82.8045 90.931 91.1274C85.9494 99.4503 78.1749 105.734 68.9925 108.86H68.9925Z" fill="#3F3D56"/>
<path d="M56.4027 31.5629H55.1985V39.9923H56.4027V31.5629Z" fill="#3F3D56"/>
<path d="M28.9787 42.4236L28.1272 43.2751L34.0877 49.2355L34.9392 48.384L28.9787 42.4236Z" fill="#3F3D56"/>
<path d="M17.2666 69.495V70.6992H25.696V69.495H17.2666Z" fill="#3F3D56"/>
<path d="M28.127 96.9192L28.9785 97.7707L34.939 91.8102L34.0875 90.9587L28.127 96.9192Z" fill="#3F3D56"/>
<path d="M76.6624 48.384L77.5139 49.2355L83.4744 43.2751L82.6229 42.4236L76.6624 48.384Z" fill="#3F3D56"/>
<path d="M85.9055 69.495V70.6992H94.3349V69.495H85.9055Z" fill="#3F3D56"/>
<path d="M77.5139 90.9587L76.6624 91.8102L82.6228 97.7707L83.4743 96.9192L77.5139 90.9587Z" fill="#3F3D56"/>
<path d="M56.4027 100.202H55.1985V108.631H56.4027V100.202Z" fill="#3F3D56"/>
<path d="M57.6071 67.6888C57.086 67.2979 56.4522 67.0867 55.8008 67.0867C55.1494 67.0867 54.5156 67.2979 53.9945 67.6888C53.6378 67.9597 53.344 68.3048 53.1335 68.7003C52.8668 69.2095 52.7514 69.7844 52.801 70.3571C52.8506 70.9298 53.0632 71.4763 53.4135 71.9321C53.7638 72.3879 54.2373 72.7338 54.7779 72.9291C55.3186 73.1243 55.9039 73.1607 56.4645 73.0339C57.0252 72.9071 57.5379 72.6225 57.942 72.2136C58.346 71.8048 58.6246 71.2888 58.7448 70.7266C58.8649 70.1645 58.8217 69.5797 58.6201 69.0414C58.4185 68.5031 58.067 68.0337 57.6071 67.6888H57.6071ZM55.8008 71.9034C55.3222 71.902 54.8635 71.7113 54.5251 71.3728C54.1867 71.0344 53.9959 70.5758 53.9945 70.0972C53.9968 69.7318 54.1079 69.3755 54.3136 69.0736C54.4901 68.8181 54.7294 68.6124 55.0086 68.4765C55.2877 68.3406 55.5973 68.2789 55.9072 68.2976C56.2171 68.3163 56.517 68.4147 56.7778 68.5832C57.0386 68.7516 57.2515 68.9846 57.396 69.2594C57.5404 69.5343 57.6115 69.8418 57.6023 70.1521C57.5932 70.4625 57.5041 70.7652 57.3437 71.0311C57.1833 71.2969 56.957 71.5169 56.6867 71.6697C56.4164 71.8226 56.1113 71.9031 55.8008 71.9034V71.9034Z" fill="#3F3D56"/>
<path d="M61.2196 17.7147H50.3818V28.5524H61.2196V17.7147Z" fill="#3F3D56"/>
<path d="M55.8007 19.521C63.7814 19.521 70.251 17.2297 70.251 14.4032C70.251 11.5767 63.7814 9.28534 55.8007 9.28534C47.82 9.28534 41.3503 11.5767 41.3503 14.4032C41.3503 17.2297 47.82 19.521 55.8007 19.521Z" fill="#3F3D56"/>
<path d="M57.607 47.2175H53.9944V67.6888H57.607V47.2175Z" fill="#3F3D56"/>
<path d="M113.194 110.409H0V111.614H113.194V110.409Z" fill="#3F3D56"/>
<path d="M75.4264 300.392C75.8937 316.395 66.5436 322.259 54.8094 322.602C54.5368 322.61 54.2655 322.615 53.9954 322.617C53.4512 322.621 52.9123 322.612 52.3787 322.59C41.7663 322.149 33.366 316.516 32.9314 301.634C32.4816 286.232 51.5979 266.221 53.0321 264.741L53.0347 264.74C53.0892 264.683 53.1171 264.655 53.1171 264.655C53.1171 264.655 74.9591 284.391 75.4264 300.392Z" fill="#D0CDE1"/>
<path d="M53.9645 320.177L61.4184 309.092L53.9797 321.369L53.9953 322.617C53.4511 322.621 52.9122 322.612 52.3786 322.59L52.7483 306.556L52.7382 306.432L52.7518 306.409L52.7872 304.894L44.6243 293.042L52.7776 303.76L52.8065 304.08L53.0858 291.966L46.0352 279.678L53.1058 289.838L53.032 264.741L53.0322 264.658L53.0346 264.74L53.5026 284.519L59.9284 276.485L53.5237 286.223L53.6639 297.059L59.5769 286.484L53.6856 298.652L53.7637 304.677L62.3629 289.946L53.7899 306.779L53.9645 320.177Z" fill="#3F3D56"/>
<path d="M399.983 300.392C400.451 316.395 391.1 322.259 379.366 322.602C379.094 322.61 378.822 322.615 378.552 322.617C378.008 322.621 377.469 322.612 376.936 322.59C366.323 322.149 357.923 316.516 357.488 301.634C357.039 286.232 376.155 266.221 377.589 264.741L377.592 264.74C377.646 264.683 377.674 264.655 377.674 264.655C377.674 264.655 399.516 284.391 399.983 300.392Z" fill="#D0CDE1"/>
<path d="M378.521 320.177L385.975 309.092L378.537 321.369L378.552 322.617C378.008 322.621 377.469 322.612 376.936 322.59L377.305 306.556L377.295 306.432L377.309 306.409L377.344 304.894L369.181 293.042L377.334 303.76L377.363 304.08L377.643 291.966L370.592 279.678L377.663 289.838L377.589 264.741L377.589 264.658L377.591 264.74L378.06 284.519L384.485 276.485L378.081 286.223L378.221 297.059L384.134 286.484L378.243 298.652L378.321 304.677L386.92 289.946L378.347 306.779L378.521 320.177Z" fill="#3F3D56"/>
</g>
<defs>
<clipPath id="clip0_251_2">
<rect width="400" height="345.204" fill="white"/>
</clipPath>
</defs>
</svg>
