<svg width="16" height="16" viewBox="0 0 16 16" fill="none" xmlns="http://www.w3.org/2000/svg">
<path fill-rule="evenodd" clip-rule="evenodd" d="M15.964 0.686004C16.0004 0.595141 16.0093 0.4956 15.9896 0.399724C15.9699 0.303848 15.9226 0.215852 15.8533 0.146645C15.7841 0.0774387 15.6961 0.0300652 15.6003 0.0103977C15.5044 -0.00926973 15.4049 -0.00036623 15.314 0.0360044L0.766987 5.855H0.765987L0.313987 6.035C0.228377 6.06915 0.153872 6.1263 0.0987025 6.20013C0.0435326 6.27397 0.00984482 6.36162 0.00136028 6.45339C-0.00712426 6.54517 0.00992467 6.63751 0.0506238 6.72021C0.0913229 6.8029 0.154088 6.87274 0.231987 6.922L0.641987 7.182L0.642987 7.184L5.63799 10.362L8.81599 15.357L8.81799 15.359L9.07799 15.769C9.12741 15.8466 9.19729 15.9091 9.27992 15.9495C9.36256 15.9899 9.45475 16.0068 9.54635 15.9982C9.63795 15.9896 9.7254 15.956 9.79909 15.9009C9.87278 15.8458 9.92984 15.7714 9.96399 15.686L15.964 0.686004V0.686004ZM14.131 2.576L14.602 1.398L13.424 1.869L5.92999 9.363L6.26799 9.578C6.33001 9.6174 6.38259 9.66998 6.42199 9.73201L6.63699 10.07L14.131 2.576V2.576Z" fill="#F8F8F8"/>
</svg>
