<svg width="179" height="153" viewBox="0 0 179 153" fill="none" xmlns="http://www.w3.org/2000/svg">
<path d="M85 127.5C84.9952 117.461 87.5322 107.585 92.3744 98.7914C97.2167 89.9979 104.207 82.5735 112.692 77.2104C121.178 71.8473 130.884 68.72 140.905 68.1202C150.925 67.5204 160.935 69.4675 170 73.78V0H0V136H85.68C85.255 133.195 85 130.39 85 127.5ZM17 17L85 59.5L153 17V34L85 76.5L17 34V17ZM130.39 153L100.3 122.91L112.285 110.925L130.305 128.945L166.345 92.905L178.5 104.89L130.39 153Z" fill="#FF4A57"/>
</svg>
