<svg width="42" height="46" viewBox="0 0 42 46" fill="none" xmlns="http://www.w3.org/2000/svg">
<path d="M40.8094 0.324219C40.6219 0.117188 40.3523 0 40.0711 0H1.00076C0.719509 0 0.449977 0.117188 0.262477 0.324219C0.0710712 0.53125 -0.0226788 0.808594 0.00466517 1.08984L3.5242 40.5156C3.55935 40.9297 3.84842 41.2734 4.24685 41.3906L20.2586 45.9609C20.3445 45.9883 20.4383 46 20.532 46C20.6258 46 20.7156 45.9883 20.8054 45.9609L36.8289 41.3906C37.2273 41.2734 37.5125 40.9297 37.5515 40.5156L41.0672 1.08984C41.0945 0.808594 41.0008 0.53125 40.8094 0.324219ZM32.3836 13.918H13.5711L14.0203 19.0078H31.9304L30.5867 34.0508L20.5281 37.0898L20.4304 37.0586L10.489 34.0469L9.94607 27.918H14.8172L15.0281 30.2969L20.5867 31.4609L26.0437 30.2969L26.6258 23.8594H9.58279L8.25857 9.05469H32.8172L32.3836 13.918Z" fill="#E74C3C"/>
</svg>
