<svg width="48" height="44" viewBox="0 0 48 44" fill="none" xmlns="http://www.w3.org/2000/svg">
<path d="M15.3594 0C14.1367 0 13.0039 0.273438 12 0.851562C8.86328 2.66406 7.66797 7.07812 8.30078 12.5742C3.22656 14.7734 0 18.0156 0 21.6367C0 25.2578 3.22656 28.5 8.30078 30.6992C7.66797 36.1953 8.86328 40.6094 12 42.4219C13.0039 43 14.1367 43.2734 15.3594 43.2734C17.9648 43.2734 20.9766 41.9648 24 39.7227C27.0234 41.9648 30.0391 43.2734 32.6445 43.2734C33.8672 43.2734 35 43 36.0039 42.4219C39.1406 40.6094 40.3359 36.1953 39.7031 30.6992C44.7773 28.5 48 25.2578 48 21.6367C48 18.0156 44.7734 14.7734 39.6992 12.5742C40.332 7.07812 39.1367 2.66406 36 0.851562C34.9961 0.273438 33.8633 0 32.6406 0C30.0352 0 27.0234 1.30859 24 3.55078C20.9766 1.30859 17.9648 0 15.3594 0ZM15.3594 3.5C16.9219 3.5 18.9883 4.33203 21.2344 5.87109C19.9141 7.11719 18.6211 8.53125 17.3789 10.1094C15.3633 10.3984 13.4609 10.8203 11.6992 11.3477C11.6914 11.2266 11.668 11.0977 11.6602 10.9766C11.4453 7.41797 12.2266 4.76172 13.75 3.88281C14.1992 3.62109 14.7266 3.5 15.3594 3.5ZM32.6406 3.5C33.2734 3.5 33.8008 3.62109 34.25 3.88281C35.7734 4.76172 36.5547 7.41797 36.3398 10.9766C36.332 11.0977 36.3086 11.2266 36.3008 11.3477C34.5391 10.8203 32.6367 10.3984 30.6172 10.1094C29.375 8.53125 28.0859 7.11719 26.7656 5.87109C29.0117 4.33203 31.0781 3.5 32.6406 3.5ZM24 8.09375C24.543 8.58594 25.082 9.10938 25.625 9.67969C25.0859 9.66016 24.5469 9.63672 24 9.63672C23.4531 9.63672 22.918 9.66016 22.3789 9.67969C22.9219 9.10938 23.457 8.58594 24 8.09375ZM24 13.1367C25.6562 13.1367 27.2266 13.2305 28.7188 13.3906C29.6289 14.625 30.5234 15.9336 31.3633 17.3867C32.168 18.7812 32.8789 20.207 33.5078 21.6367C32.8789 23.0664 32.168 24.4961 31.3633 25.8906C30.5273 27.3398 29.6328 28.6367 28.7266 29.8711C27.1836 30.0391 25.6016 30.1367 24 30.1367C22.3438 30.1367 20.7734 30.043 19.2812 29.8828C18.3711 28.6484 17.4766 27.3438 16.6367 25.8906C15.832 24.4961 15.1211 23.0664 14.4922 21.6367C15.1211 20.207 15.832 18.7812 16.6367 17.3867C17.4727 15.9375 18.3672 14.6367 19.2734 13.4023C20.8164 13.2344 22.3984 13.1367 24 13.1367ZM33.4922 14.2188C34.2852 14.4102 35.0469 14.6172 35.7656 14.8477C35.6016 15.582 35.4062 16.3281 35.1797 17.0859C34.9219 16.6016 34.6719 16.1172 34.3945 15.6367C34.1094 15.1406 33.7891 14.6953 33.4922 14.2188ZM14.5039 14.2227C14.207 14.6992 13.8906 15.1445 13.6055 15.6367C13.3281 16.1172 13.0781 16.6016 12.8203 17.0859C12.5938 16.3281 12.3945 15.5781 12.2305 14.8438C12.9609 14.6133 13.7227 14.4102 14.5039 14.2227ZM8.9375 16.1289C9.35938 17.9062 9.94531 19.7539 10.6953 21.6328C9.94531 23.5078 9.36328 25.3516 8.94141 27.125C5.45703 25.4414 3.5 23.3477 3.5 21.6367C3.5 19.8789 5.40234 17.875 8.59375 16.2812C8.70312 16.2266 8.82812 16.1836 8.9375 16.1289ZM39.0586 16.1484C42.543 17.832 44.5 19.9258 44.5 21.6367C44.5 23.3945 42.5977 25.3984 39.4062 26.9922C39.2969 27.0469 39.1719 27.0898 39.0625 27.1445C38.6406 25.3633 38.0625 23.5195 37.3086 21.6367C38.0586 19.7617 38.6367 17.9219 39.0586 16.1484ZM24 17.6367C21.7891 17.6367 20 19.4258 20 21.6367C20 23.8477 21.7891 25.6367 24 25.6367C26.2109 25.6367 28 23.8477 28 21.6367C28 19.4258 26.2109 17.6367 24 17.6367ZM12.8203 26.1875C13.0781 26.6719 13.332 27.1562 13.6094 27.6367C13.8945 28.1328 14.2109 28.5781 14.5078 29.0547C13.7148 28.8633 12.9531 28.6562 12.2344 28.4258C12.3984 27.6914 12.5938 26.9453 12.8203 26.1875ZM35.1797 26.1914C35.4062 26.9492 35.6055 27.6953 35.7695 28.4297C35.0391 28.6602 34.2773 28.8633 33.4961 29.0508C33.793 28.5742 34.1094 28.1289 34.3945 27.6367C34.6719 27.1562 34.9219 26.6719 35.1797 26.1914ZM11.6992 31.9258C13.4609 32.4531 15.3633 32.875 17.3828 33.1641C18.625 34.7422 19.9141 36.1602 21.2344 37.4062C18.9883 38.9453 16.9219 39.7773 15.3594 39.7773C14.7266 39.7773 14.1992 39.6523 13.75 39.3906C12.2266 38.5117 11.4453 35.8594 11.6602 32.3008C11.668 32.1797 11.6914 32.0508 11.6992 31.9258ZM36.3008 31.9258C36.3086 32.0508 36.332 32.1797 36.3398 32.3008C36.5547 35.8594 35.7734 38.5117 34.25 39.3906C33.8008 39.6523 33.2734 39.7773 32.6406 39.7773C31.0781 39.7773 29.0117 38.9453 26.7656 37.4062C28.0859 36.1602 29.3789 34.7422 30.6211 33.1641C32.6367 32.875 34.5391 32.4531 36.3008 31.9258ZM22.375 33.5938C22.9141 33.6133 23.4531 33.6367 24 33.6367C24.5469 33.6367 25.0859 33.6133 25.625 33.5938C25.082 34.1641 24.543 34.6875 24 35.1797C23.457 34.6875 22.918 34.1641 22.375 33.5938Z" fill="#E74C3C"/>
</svg>
