<svg width="50" height="50" viewBox="0 0 50 50" fill="none" xmlns="http://www.w3.org/2000/svg">
<path d="M17.7891 46.8359C18.5039 46.5312 19 45.8242 19 45V39.6016C19 39.4023 19.0156 39.1992 19.0391 38.9883C19.0273 38.9922 19.0156 38.9961 19 39C19 39 16 39 15.3984 39C13.8984 39 12.6016 38.3984 12 37.1992C11.3008 35.8984 11 33.6992 9.19922 32.5C8.89844 32.3008 9.10156 32 9.69922 32C10.3008 32.1016 11.6016 32.8984 12.3984 34C13.3008 35.1016 14.1992 36 15.8008 36C18.2852 36 19.6211 35.875 20.4219 35.4453C21.3555 34.0547 22.6484 33 24 33V32.9766C18.332 32.793 14.7109 30.9102 13.0234 28C9.35938 28.043 6.16797 28.4062 4.34766 28.707C4.28906 28.3789 4.23828 28.0508 4.19531 27.7188C5.99219 27.4258 9.03906 27.0742 12.543 27.0078C12.4297 26.7305 12.332 26.4453 12.25 26.1562C8.73828 25.9805 5.71094 26.1172 4.0625 26.2539C4.04297 25.9219 4.01563 25.5898 4.01172 25.2539C5.66016 25.1211 8.60938 24.9844 12.0312 25.1445C11.9531 24.6445 11.9023 24.1328 11.9023 23.6016C11.9023 21.9023 12.5 20.1016 13.6016 18.6016C13.1016 16.9023 12.4023 13.3008 13.8008 12C16.5 12 18.4023 13.3008 19.3008 14.1016C21 13.3984 22.8984 13 25 13C27.1016 13 29 13.3984 30.6016 14.1016C31.5 13.3008 33.3984 12 36.1016 12C37.6016 13.3984 36.8008 17 36.3008 18.6016C37.3984 20.1016 38 21.8008 37.8984 23.6016C37.8984 24.0859 37.8555 24.5508 37.7891 25.0078C41.2891 24.8359 44.3164 24.9766 45.9922 25.1094C45.9922 25.4492 45.9609 25.7773 45.9414 26.1094C44.2734 25.9727 41.168 25.8281 37.5859 26.0195C37.4961 26.3555 37.3867 26.6836 37.2578 27C40.8047 27.0469 43.9258 27.3906 45.8086 27.6914C45.7656 28.0234 45.7148 28.3516 45.6562 28.6758C43.7422 28.3711 40.4844 28.0117 36.7773 27.9961C35.1133 30.8711 31.5586 32.75 26 32.9688V33C28.6016 33 31 36.8984 31 39.6016V45C31 45.8242 31.4961 46.5312 32.2109 46.8359C41.3711 43.8047 48 35.1641 48 25C48 12.3164 37.6836 2 25 2C12.3164 2 2 12.3164 2 25C2 35.1641 8.62891 43.8047 17.7891 46.8359Z" fill="#E74C3C"/>
</svg>
