<svg width="50" height="50" viewBox="0 0 50 50" fill="none" xmlns="http://www.w3.org/2000/svg">
<g clip-path="url(#clip0_134_46)">
<path d="M43.0312 27.8008C41.2812 27.8125 39.7695 28.2305 38.5 28.8555C38.0351 27.9297 37.5664 27.1133 37.4883 26.5078C37.3945 25.8008 37.2891 25.3789 37.3984 24.5352C37.5117 23.6953 37.9961 22.5 37.9883 22.4102C37.9844 22.3242 37.8828 21.8946 36.8711 21.8867C35.8633 21.8789 35.0039 22.0781 34.9023 22.3477C34.8008 22.6133 34.6055 23.211 34.4844 23.836C34.3086 24.75 32.4726 28.0117 31.4297 29.7149C31.0898 29.0508 30.8008 28.4649 30.7383 28C30.6484 27.293 30.5391 26.8711 30.6523 26.0274C30.7617 25.1836 31.25 23.9922 31.2422 23.9024C31.2344 23.8125 31.1328 23.3828 30.125 23.375C29.1172 23.3672 28.2539 23.5703 28.1523 23.836C28.0508 24.1016 27.9414 24.7227 27.7383 25.3242C27.5312 25.9297 25.0898 31.3633 24.4492 32.7735C24.125 33.4922 23.8437 34.0703 23.6406 34.4649C23.6406 34.461 23.6406 34.461 23.6406 34.461C23.6406 34.461 23.6289 34.4883 23.6055 34.5313C23.4375 34.8672 23.3359 35.0547 23.3359 35.0547C23.3359 35.0547 23.3359 35.0547 23.3359 35.0586C23.1992 35.3047 23.0547 35.5352 22.9844 35.5352C22.9336 35.5352 22.832 34.8789 23.0078 33.9805C23.3672 32.0938 24.2422 29.1524 24.2344 29.0508C24.2305 29 24.3945 28.4883 23.6641 28.2188C22.9531 27.9571 22.6992 28.3906 22.6328 28.3946C22.5703 28.3946 22.5234 28.5469 22.5234 28.5469C22.5234 28.5469 23.3164 25.2383 21.0117 25.2383C19.5703 25.2383 17.5742 26.8125 16.5898 28.2422C15.9726 28.5781 14.6445 29.3047 13.2344 30.0781C12.6914 30.375 12.1406 30.6797 11.6172 30.9688C11.582 30.9297 11.5469 30.8906 11.5078 30.8516C8.71484 27.8711 3.55077 25.7617 3.76952 21.7539C3.85155 20.2969 4.35546 16.461 13.6953 11.8086C21.3437 7.99612 27.4687 9.0469 28.5234 11.3711C30.0351 14.6914 25.2539 20.8633 17.3086 21.7539C14.2812 22.0938 12.6875 20.9219 12.293 20.4844C11.875 20.0235 11.8125 20.0039 11.6562 20.0899C11.4023 20.2305 11.5625 20.6367 11.6562 20.8789C11.8945 21.4961 12.8672 22.5899 14.5273 23.1367C15.9883 23.6133 19.5391 23.8789 23.8398 22.2149C28.6523 20.3516 32.4101 15.1758 31.3047 10.8438C30.1836 6.44143 22.8828 4.99612 15.9726 7.44924C11.8633 8.91018 7.41015 11.2031 4.21093 14.1953C0.402336 17.7578 -0.203132 20.8555 0.0468676 22.1485C0.937493 26.7461 7.27734 29.7422 9.8164 31.9649C9.6914 32.0313 9.5703 32.0977 9.46484 32.1563C8.1914 32.7852 3.35937 35.3164 2.15234 37.9883C0.781243 41.0196 2.36718 43.1914 3.42187 43.4844C6.68359 44.3946 10.0273 42.7617 11.8242 40.0782C13.625 37.3985 13.4023 33.9063 12.5781 32.3125C12.5703 32.293 12.5586 32.2735 12.5469 32.2539C12.875 32.0586 13.2109 31.8633 13.543 31.668C14.1914 31.2852 14.8281 30.9336 15.3789 30.6328C15.0703 31.4766 14.8437 32.4922 14.7266 33.9571C14.5898 35.6758 15.293 37.9024 16.2148 38.7774C16.6211 39.1602 17.1094 39.1719 17.4219 39.1719C18.4961 39.1719 18.9844 38.2774 19.5234 37.2188C20.1875 35.9258 20.7734 34.4141 20.7734 34.4141C20.7734 34.4141 20.0351 38.4922 22.043 38.4922C22.7734 38.4922 23.5117 37.543 23.8398 37.0586C23.8398 37.0625 23.8398 37.0664 23.8398 37.0664C23.8398 37.0664 23.8594 37.0352 23.8945 36.9727C23.9726 36.8555 24.0156 36.7813 24.0156 36.7813C24.0156 36.7813 24.0156 36.7735 24.0195 36.7617C24.3125 36.25 24.9648 35.086 25.9414 33.168C27.207 30.6875 28.418 27.5821 28.418 27.5821C28.418 27.5821 28.5312 28.3399 28.8984 29.5977C29.1172 30.336 29.5781 31.1524 29.9414 31.9336C29.6484 32.3438 29.4687 32.5742 29.4687 32.5742C29.4687 32.5742 29.4726 32.5781 29.4766 32.586C29.2422 32.8985 28.9766 33.2344 28.7031 33.5625C27.707 34.75 26.5195 36.1055 26.3594 36.4961C26.1719 36.9571 26.2148 37.2969 26.5781 37.5703C26.8437 37.7696 27.3125 37.8008 27.8047 37.7656C28.6992 37.7071 29.332 37.4844 29.6445 37.3477C30.1289 37.1797 30.6914 36.9063 31.2226 36.5196C32.1992 35.8008 32.7891 34.7696 32.7344 33.4063C32.7031 32.6563 32.4648 31.9102 32.1601 31.211C32.25 31.0821 32.3398 30.9531 32.4297 30.8203C33.9687 28.5664 35.1641 26.0899 35.1641 26.0899C35.1641 26.0899 35.2773 26.8516 35.6484 28.1055C35.8359 28.7422 36.2031 29.4336 36.5351 30.1133C35.0859 31.293 34.1875 32.6602 33.8711 33.5586C33.2969 35.2188 33.7461 35.9727 34.5976 36.1446C34.9805 36.2227 35.5234 36.0469 35.9297 35.8711C36.4375 35.7031 37.0508 35.4258 37.6172 35.0039C38.5976 34.2852 39.5391 33.2774 39.4805 31.9141C39.4531 31.2969 39.2851 30.6797 39.0586 30.0899C40.2891 29.5742 41.8789 29.2891 43.9062 29.5274C48.2578 30.0352 49.1094 32.75 48.9453 33.8867C48.7812 35.0235 47.8711 35.6485 47.5664 35.836C47.2617 36.0274 47.168 36.0899 47.1953 36.2305C47.2305 36.4336 47.3711 36.4258 47.6328 36.3828C47.9883 36.3242 49.9141 35.461 49.9961 33.3594C50.1016 30.7031 47.5508 27.7774 43.0312 27.8008ZM9.51171 39.1016C8.0703 40.6719 6.05859 41.2657 5.1953 40.7657C4.26562 40.2266 4.6328 37.9141 6.40234 36.2461C7.47655 35.2305 8.86718 34.293 9.79296 33.7188C10.0039 33.5899 10.3086 33.4063 10.6836 33.1797C10.7461 33.1446 10.7812 33.125 10.7812 33.125V33.1211C10.8516 33.0781 10.9297 33.0352 11.0039 32.9883C11.6484 35.3633 11.0234 37.4532 9.51171 39.1016ZM20.0039 31.9688C19.5039 33.1914 18.4531 36.3203 17.8125 36.1524C17.2656 36.0078 16.9297 33.6289 17.7031 31.2891C18.0937 30.1094 18.9258 28.7031 19.4141 28.1563C20.1992 27.2774 21.0664 26.9883 21.2734 27.3477C21.543 27.8008 20.3203 31.1992 20.0039 31.9688ZM28.6758 36.1055C28.4609 36.2149 28.2656 36.2852 28.1758 36.2305C28.1094 36.1914 28.2656 36.0469 28.2656 36.0469C28.2656 36.0469 29.3476 34.8789 29.7773 34.3477C30.0234 34.0391 30.3125 33.6719 30.6289 33.2617C30.6289 33.3047 30.6328 33.3438 30.6328 33.3828C30.6289 34.7813 29.2773 35.7266 28.6758 36.1055ZM35.3555 34.5821C35.1953 34.4688 35.2226 34.1055 35.7422 32.9688C35.9492 32.5235 36.4141 31.7696 37.2266 31.0508C37.3203 31.3477 37.3789 31.6289 37.3789 31.8946C37.3672 33.6524 36.1133 34.3086 35.3555 34.5821Z" fill="#E74C3C"/>
</g>
<defs>
<clipPath id="clip0_134_46">
<rect width="50" height="50" fill="white"/>
</clipPath>
</defs>
</svg>
