<svg width="90" height="91" viewBox="0 0 90 91" fill="none" xmlns="http://www.w3.org/2000/svg">
<path d="M9 6H6V9H9V6Z" fill="#E74C3C"/>
<path d="M69 6H66V9H69V6Z" fill="#E74C3C"/>
<path d="M63 6H60V9H63V6Z" fill="#E74C3C"/>
<path d="M57 6H54V9H57V6Z" fill="#E74C3C"/>
<path d="M29.3595 46.7715L16.116 37.5L29.3595 28.2285L27.6405 25.7715L12.6405 36.2715C12.4431 36.4098 12.2819 36.5937 12.1706 36.8075C12.0593 37.0214 12.0012 37.2589 12.0012 37.5C12.0012 37.7411 12.0593 37.9786 12.1706 38.1924C12.2819 38.4063 12.4431 38.5902 12.6405 38.7285L27.6405 49.2285L29.3595 46.7715Z" fill="#E74C3C"/>
<path d="M47.3594 49.2285L62.3594 38.7285C62.5568 38.5902 62.718 38.4063 62.8293 38.1924C62.9406 37.9786 62.9987 37.7411 62.9987 37.5C62.9987 37.2589 62.9406 37.0214 62.8293 36.8075C62.718 36.5937 62.5568 36.4098 62.3594 36.2715L47.3594 25.7715L45.6404 28.2285L58.8839 37.5L45.6404 46.7715L47.3594 49.2285Z" fill="#E74C3C"/>
<path d="M40.6033 26.4439L31.6116 48.9464L34.3974 50.0596L43.3891 27.5571L40.6033 26.4439Z" fill="#E74C3C"/>
<path d="M55.5 57H13.5V60H55.5V57Z" fill="#E74C3C"/>
<path d="M52.5 63H13.5V66H52.5V63Z" fill="#E74C3C"/>
<path d="M75 54.2715V1.5C75 1.10218 74.842 0.720644 74.5607 0.43934C74.2794 0.158035 73.8978 0 73.5 0H1.5C1.10218 0 0.720644 0.158035 0.43934 0.43934C0.158035 0.720644 0 1.10218 0 1.5V70.5C0 70.8978 0.158035 71.2794 0.43934 71.5607C0.720644 71.842 1.10218 72 1.5 72H54C53.9962 75.4327 54.9741 78.7948 56.8182 81.69C58.6624 84.5852 61.2959 86.8927 64.4083 88.3405C67.5208 89.7882 70.9823 90.3158 74.3846 89.8611C77.787 89.4063 80.9885 87.9882 83.6114 85.7738C86.2344 83.5595 88.1694 80.6414 89.1885 77.3635C90.2076 74.0856 90.2681 70.5846 89.363 67.2734C88.4578 63.9623 86.6248 60.979 84.08 58.6753C81.5351 56.3716 78.3847 54.8436 75 54.2715ZM3 3H72V12H3V3ZM3 69V15H72V54C67.7504 54.0074 63.6402 55.5169 60.3959 58.2618C57.1517 61.0067 54.9824 64.8102 54.2715 69H3ZM72 87C69.0333 87 66.1332 86.1203 63.6665 84.4721C61.1997 82.8238 59.2771 80.4811 58.1418 77.7403C57.0065 74.9994 56.7094 71.9834 57.2882 69.0736C57.867 66.1639 59.2956 63.4912 61.3934 61.3934C63.4912 59.2956 66.1639 57.867 69.0737 57.2882C71.9834 56.7094 74.9994 57.0065 77.7403 58.1418C80.4812 59.2771 82.8238 61.1997 84.4721 63.6665C86.1203 66.1332 87 69.0333 87 72C86.9956 75.9769 85.4139 79.7897 82.6018 82.6018C79.7897 85.4139 75.9769 86.9956 72 87Z" fill="#E74C3C"/>
<path d="M81.0074 64.7175L78.4034 65.5635C77.9438 65.1515 77.4443 64.7862 76.9124 64.473V61.7415C76.9124 61.3436 76.7544 60.9621 76.4731 60.6808C76.1917 60.3995 75.8102 60.2415 75.4124 60.2415H69.4124C69.0146 60.2415 68.633 60.3995 68.3517 60.6808C68.0704 60.9621 67.9124 61.3436 67.9124 61.7415V64.4565C67.3724 64.7707 66.8658 65.1391 66.4004 65.556L63.8189 64.7175C63.4399 64.5956 63.0282 64.6279 62.6729 64.8075C62.4966 64.8964 62.3395 65.0193 62.2108 65.1692C62.0821 65.319 61.9843 65.4927 61.9229 65.6805L60.0689 71.388C59.9459 71.7661 59.9781 72.1776 60.1584 72.532C60.3387 72.8864 60.6524 73.1547 61.0304 73.278L63.6494 74.1285C63.7807 74.7216 63.9727 75.2996 64.2224 75.8535L62.5964 78.0915C62.4798 78.251 62.396 78.4319 62.3495 78.6239C62.3031 78.8159 62.2951 79.0152 62.3259 79.2103C62.3567 79.4055 62.4257 79.5926 62.529 79.7609C62.6323 79.9293 62.7679 80.0756 62.9279 80.1915L67.7819 83.7195C67.9414 83.836 68.1223 83.9199 68.3143 83.9663C68.5064 84.0128 68.7056 84.0208 68.9008 83.99C69.0959 83.9592 69.283 83.8902 69.4514 83.7868C69.6198 83.6835 69.7661 83.548 69.8819 83.388L71.4749 81.192C72.0967 81.2655 72.7251 81.2655 73.3469 81.192L74.9414 83.388C75.0572 83.5474 75.2034 83.6825 75.3714 83.7854C75.5395 83.8884 75.7262 83.9572 75.9209 83.988C75.9982 84.0011 76.0765 84.0076 76.1549 84.0075C76.4718 84.0075 76.7805 83.9072 77.0369 83.721L81.8999 80.1855C82.0598 80.0695 82.1952 79.9231 82.2984 79.7547C82.4016 79.5863 82.4705 79.3991 82.5011 79.204C82.5318 79.0089 82.5236 78.8096 82.4771 78.6177C82.4305 78.4257 82.3465 78.2449 82.2299 78.0855L80.6039 75.8475C80.8534 75.2934 81.0459 74.7155 81.1784 74.1225L83.7959 73.272C84.1742 73.149 84.4882 72.8808 84.6688 72.5264C84.8494 72.1719 84.8818 71.7603 84.7589 71.382L82.9049 65.682C82.8435 65.4942 82.7457 65.3205 82.617 65.1707C82.4882 65.0208 82.3312 64.8979 82.1549 64.809C81.7994 64.6285 81.387 64.5956 81.0074 64.7175ZM79.3739 71.5575C79.0966 71.6476 78.8515 71.8167 78.6688 72.0439C78.486 72.2712 78.3735 72.5467 78.3449 72.837C78.2538 73.6851 77.9811 74.5036 77.5454 75.237C77.4005 75.4883 77.3317 75.7762 77.3471 76.0659C77.3626 76.3555 77.4616 76.6345 77.6324 76.869L78.9164 78.6375L76.4894 80.4L75.2309 78.666C75.0917 78.4745 74.9092 78.3187 74.6983 78.2113C74.4874 78.1039 74.2541 78.0479 74.0174 78.048C73.9089 78.048 73.8007 78.0601 73.6949 78.084C72.8529 78.291 71.9734 78.291 71.1314 78.084C70.8463 78.0208 70.5489 78.0422 70.2758 78.1456C70.0027 78.249 69.7657 78.4298 69.5939 78.666L68.3369 80.4L65.9084 78.6375L67.1939 76.869C67.3646 76.6345 67.4637 76.3555 67.4792 76.0659C67.4946 75.7762 67.4257 75.4883 67.2809 75.237C66.8454 74.5034 66.5722 73.685 66.4799 72.837C66.4514 72.5469 66.3391 72.2715 66.1566 72.0442C65.9742 71.817 65.7294 71.6479 65.4524 71.5575L63.3899 70.8885L64.3169 68.0385L66.3449 68.7C66.6223 68.7904 66.92 68.798 67.2016 68.7218C67.4832 68.6456 67.7365 68.4889 67.9304 68.271C68.5084 67.6216 69.2195 67.1043 70.0154 66.7545C70.2828 66.6378 70.5103 66.4456 70.6702 66.2016C70.83 65.9575 70.9152 65.6722 70.9154 65.3805V63.2415H73.9154V65.385C73.9154 65.6746 73.9992 65.958 74.1568 66.2011C74.3144 66.4441 74.539 66.6363 74.8034 66.7545C75.5942 67.1091 76.3012 67.6269 76.8779 68.274C77.0719 68.4914 77.325 68.6476 77.6063 68.7235C77.8876 68.7994 78.1849 68.7917 78.4619 68.7015L80.5124 68.034L81.4394 70.884L79.3739 71.5575Z" fill="#E74C3C"/>
<path d="M72.4126 75.2415C74.0695 75.2415 75.4126 73.8983 75.4126 72.2415C75.4126 70.5846 74.0695 69.2415 72.4126 69.2415C70.7557 69.2415 69.4126 70.5846 69.4126 72.2415C69.4126 73.8983 70.7557 75.2415 72.4126 75.2415Z" fill="#E74C3C"/>
</svg>
