<svg width="80" height="80" viewBox="0 0 80 80" fill="none" xmlns="http://www.w3.org/2000/svg">
<path d="M17.3333 8.27583C18.0697 8.27583 18.6667 7.65829 18.6667 6.89652C18.6667 6.13475 18.0697 5.51721 17.3333 5.51721C16.597 5.51721 16 6.13475 16 6.89652C16 7.65829 16.597 8.27583 17.3333 8.27583Z" fill="#E74C3C"/>
<path d="M12.0001 8.27583C12.7365 8.27583 13.3334 7.65829 13.3334 6.89652C13.3334 6.13475 12.7365 5.51721 12.0001 5.51721C11.2637 5.51721 10.6667 6.13475 10.6667 6.89652C10.6667 7.65829 11.2637 8.27583 12.0001 8.27583Z" fill="#E74C3C"/>
<path d="M6.66659 8.27583C7.40297 8.27583 7.99992 7.65829 7.99992 6.89652C7.99992 6.13475 7.40297 5.51721 6.66659 5.51721C5.93021 5.51721 5.33325 6.13475 5.33325 6.89652C5.33325 7.65829 5.93021 8.27583 6.66659 8.27583Z" fill="#E74C3C"/>
<path d="M78.6667 13.7932H1.33333C0.597333 13.7932 0 13.1752 0 12.4139C0 11.6525 0.597333 11.0345 1.33333 11.0345H78.6667C79.4027 11.0345 80 11.6525 80 12.4139C80 13.1752 79.4027 13.7932 78.6667 13.7932Z" fill="#E74C3C"/>
<path d="M1.33333 55.1724C0.597333 55.1724 0 54.5545 0 53.7931V4.13793C0 1.85655 1.79467 0 4 0H76C78.2053 0 80 1.85655 80 4.13793V28.9655C80 29.7269 79.4027 30.3448 78.6667 30.3448C77.9307 30.3448 77.3333 29.7269 77.3333 28.9655V4.13793C77.3333 3.37931 76.736 2.75862 76 2.75862H4C3.264 2.75862 2.66667 3.37931 2.66667 4.13793V53.7931C2.66667 54.5545 2.06933 55.1724 1.33333 55.1724Z" fill="#E74C3C"/>
<path d="M56 80H25.3333C24.5973 80 24 79.382 24 78.6207C24 77.8593 24.5973 77.2413 25.3333 77.2413H28C30.2053 77.2413 32 75.3848 32 73.1034V70.3448C32 69.5834 32.5973 68.9655 33.3333 68.9655C34.0693 68.9655 34.6667 69.5834 34.6667 70.3448V73.1034C34.6667 74.6565 34.168 76.0882 33.3307 77.2413H46.6693C45.832 76.0882 45.3333 74.6565 45.3333 73.1034V64.8276C45.3333 64.0662 45.9307 63.4482 46.6667 63.4482C47.4027 63.4482 48 64.0662 48 64.8276V73.1034C48 75.3848 49.7947 77.2413 52 77.2413H56C56.736 77.2413 57.3333 77.8593 57.3333 78.6207C57.3333 79.382 56.736 80 56 80Z" fill="#E74C3C"/>
<path d="M46.6667 66.2068H4C1.79467 66.2068 0 64.3502 0 62.0689V53.793C0 53.0316 0.597333 52.4137 1.33333 52.4137H38.6667C39.4027 52.4137 40 53.0316 40 53.793C40 54.5544 39.4027 55.1723 38.6667 55.1723H2.66667V62.0689C2.66667 62.8275 3.264 63.4482 4 63.4482H46.6667C47.4027 63.4482 48 64.0661 48 64.8275C48 65.5889 47.4027 66.2068 46.6667 66.2068Z" fill="#E74C3C"/>
<path d="M46.6667 33.1035H44.0001C43.2641 33.1035 42.6667 32.4855 42.6667 31.7242C42.6667 30.9628 43.2641 30.3448 44.0001 30.3448H46.6667C47.4027 30.3448 48.0001 30.9628 48.0001 31.7242C48.0001 32.4855 47.4027 33.1035 46.6667 33.1035Z" fill="#E74C3C"/>
<path d="M70.6667 22.069H44.0001C43.2641 22.069 42.6667 21.4511 42.6667 20.6897C42.6667 19.9284 43.2641 19.3104 44.0001 19.3104H70.6667C71.4027 19.3104 72.0001 19.9284 72.0001 20.6897C72.0001 21.4511 71.4027 22.069 70.6667 22.069Z" fill="#E74C3C"/>
<path d="M70.6667 27.5863H44.0001C43.2641 27.5863 42.6667 26.9683 42.6667 26.2069C42.6667 25.4456 43.2641 24.8276 44.0001 24.8276H70.6667C71.4027 24.8276 72.0001 25.4456 72.0001 26.2069C72.0001 26.9683 71.4027 27.5863 70.6667 27.5863Z" fill="#E74C3C"/>
<path d="M17.3333 33.1035H9.33333C8.59733 33.1035 8 32.4855 8 31.7242C8 30.9628 8.59733 30.3448 9.33333 30.3448H17.3333C18.0693 30.3448 18.6667 30.9628 18.6667 31.7242C18.6667 32.4855 18.0693 33.1035 17.3333 33.1035Z" fill="#E74C3C"/>
<path d="M36 22.069H9.33333C8.59733 22.069 8 21.4511 8 20.6897C8 19.9284 8.59733 19.3104 9.33333 19.3104H36C36.736 19.3104 37.3333 19.9284 37.3333 20.6897C37.3333 21.4511 36.736 22.069 36 22.069Z" fill="#E74C3C"/>
<path d="M36 27.5863H9.33333C8.59733 27.5863 8 26.9683 8 26.2069C8 25.4456 8.59733 24.8276 9.33333 24.8276H36C36.736 24.8276 37.3333 25.4456 37.3333 26.2069C37.3333 26.9683 36.736 27.5863 36 27.5863Z" fill="#E74C3C"/>
<path d="M61.3334 68.9655C51.0401 68.9655 42.6667 60.3007 42.6667 49.6552C42.6667 39.0097 51.0401 30.3448 61.3334 30.3448C64.9387 30.3448 68.4347 31.4097 71.4454 33.4207C72.0641 33.8345 72.2401 34.6869 71.8401 35.3269C71.4401 35.9614 70.6187 36.1545 69.9974 35.7352C67.4214 34.0138 64.4241 33.1035 61.3334 33.1035C52.5094 33.1035 45.3334 40.5269 45.3334 49.6552C45.3334 58.7835 52.5094 66.2069 61.3334 66.2069C70.1574 66.2069 77.3334 58.7835 77.3334 49.6552C77.3334 47.8842 77.0641 46.1435 76.5361 44.4773C76.3067 43.7517 76.6881 42.9738 77.3867 42.7366C78.0854 42.4938 78.8401 42.8938 79.0694 43.6138C79.6854 45.5614 80.0001 47.5917 80.0001 49.6552C80.0001 60.3007 71.6267 68.9655 61.3334 68.9655Z" fill="#E74C3C"/>
<path d="M60.0001 57.1008C59.9894 57.1008 59.9788 57.1008 59.9681 57.1008C59.5814 57.0898 59.2214 56.9104 58.9734 56.6042L52.3068 48.3284C51.8374 47.7408 51.9148 46.8718 52.4774 46.3836C53.0454 45.898 53.8828 45.978 54.3574 46.5601L60.0454 53.6249L76.6187 34.687C77.1201 34.1242 77.9627 34.0911 78.5014 34.6015C79.0427 35.1173 79.0801 35.9891 78.5814 36.5518L60.9814 56.6539C60.7281 56.9408 60.3761 57.1008 60.0001 57.1008Z" fill="#E74C3C"/>
</svg>
