<svg width="90" height="74" viewBox="0 0 90 74" fill="none" xmlns="http://www.w3.org/2000/svg">
<path d="M22.4736 4.46667H17.5735C16.9137 4.46667 16.3779 4.89527 16.3779 5.4231V9.34325C16.3779 9.87107 16.9137 10.2997 17.5735 10.2997H22.4736C23.1334 10.2997 23.6692 9.87107 23.6692 9.34325V5.4231C23.6692 4.89527 23.1334 4.46667 22.4736 4.46667ZM21.2781 8.38682H18.7688V6.37936H21.2781V8.38682Z" fill="#E74C3C"/>
<path d="M32.188 4.46667H27.2878C26.628 4.46667 26.0923 4.89527 26.0923 5.4231V9.34325C26.0923 9.87107 26.628 10.2997 27.2878 10.2997H32.188C32.8478 10.2997 33.3835 9.87107 33.3835 9.34325V5.4231C33.3833 4.89527 32.8478 4.46667 32.188 4.46667ZM30.9925 8.38682H28.4831V6.37936H30.9925V8.38682Z" fill="#E74C3C"/>
<path d="M41.9024 4.46667H37.0036C36.3439 4.46667 35.8081 4.89527 35.8081 5.4231V9.34325C35.8081 9.87107 36.3439 10.2997 37.0036 10.2997H41.9024C42.5622 10.2997 43.0979 9.87107 43.0979 9.34325V5.4231C43.0979 4.89527 42.5622 4.46667 41.9024 4.46667ZM40.7069 8.38682H38.1992V6.37936H40.7069V8.38682Z" fill="#E74C3C"/>
<path d="M21.9977 36.1611C25.412 36.1611 28.1883 33.9401 28.1883 31.2098C28.1883 28.4784 25.412 26.2573 21.9977 26.2573C18.5849 26.2573 15.8086 28.4784 15.8086 31.2098C15.8086 33.9401 18.5849 36.1611 21.9977 36.1611ZM21.9977 28.1702C24.0925 28.1702 25.7973 29.5342 25.7973 31.2098C25.7973 32.8856 24.0923 34.2483 21.9977 34.2483C19.903 34.2483 18.1997 32.8854 18.1997 31.2098C18.1997 29.534 19.903 28.1702 21.9977 28.1702Z" fill="#E74C3C"/>
<path d="M88.8028 28.4936H78.4973V0.956423C78.4973 0.4286 77.9601 0 77.3003 0H12.4543C11.7945 0 11.2588 0.4286 11.2588 0.956423V13.6582V22.7749H1.19553C0.535749 22.7749 0 23.2035 0 23.7314V53.0575C0 53.0859 0.0172489 53.1101 0.0203291 53.138C0.0275163 53.2044 0.0447654 53.2661 0.068791 53.33C0.0907631 53.3879 0.113967 53.4421 0.148466 53.4945C0.182964 53.5475 0.22547 53.5945 0.272906 53.6422C0.324653 53.6947 0.378659 53.7414 0.442933 53.7843C0.469217 53.8018 0.483591 53.8263 0.51234 53.8423C0.534312 53.8546 0.561213 53.8495 0.583595 53.8603C0.764301 53.9492 0.964308 54.0138 1.19142 54.0143C1.19224 54.0143 1.19306 54.0149 1.19389 54.0149C1.19409 54.0149 1.1945 54.0147 1.19471 54.0147C1.19512 54.0147 1.19512 54.0149 1.19553 54.0149H11.2588V72.7041C11.2588 73.2319 11.7945 73.6617 12.4543 73.6617H77.3005C77.9603 73.6617 78.4975 73.2319 78.4975 72.7041V66.6247H88.803C89.4628 66.6247 90 66.1949 90 65.6671V29.45C89.9998 28.9222 89.4626 28.4936 88.8028 28.4936ZM13.6496 1.91285H76.1034V12.7019H13.6496V1.91285ZM13.6496 14.6146H76.1034V28.4936H47.2946V23.7314C47.2946 23.2035 46.7589 22.7749 46.0991 22.7749H13.6496V14.6146ZM2.39085 24.6878H44.9034V49.7976L33.6344 35.7512C33.4475 35.5188 33.1454 35.3624 32.8023 35.3226C32.4709 35.2783 32.1148 35.3624 31.8505 35.5421L21.3645 42.7222L15.8072 36.794C15.578 36.5465 15.092 36.3677 14.8306 36.4109C14.4466 36.4169 14.089 36.5686 13.8701 36.8208L2.39106 50.0103V24.6878H2.39085ZM3.48556 52.0999L14.8876 39L20.217 44.6869C20.2256 44.6961 20.239 44.6999 20.2478 44.7088C20.2554 44.7163 20.257 44.7262 20.2651 44.7336C20.3084 44.774 20.3661 44.7945 20.4152 44.8277C20.4792 44.8709 20.5373 44.9187 20.6096 44.9498C20.677 44.9788 20.7489 44.9903 20.8209 45.0082C20.8961 45.0271 20.9676 45.051 21.0458 45.0577C21.1158 45.0636 21.1842 45.0531 21.2548 45.0491C21.338 45.0445 21.4193 45.0445 21.5004 45.0261C21.5694 45.0104 21.6302 44.9778 21.6957 44.9521C21.7604 44.9264 21.83 44.9141 21.8898 44.8783C21.9013 44.8714 21.9062 44.8607 21.9173 44.8537C21.9277 44.8471 21.9409 44.8456 21.951 44.8385L32.3631 37.7094L43.9107 52.0998H3.48556V52.0999ZM76.1034 71.7465H13.6496V54.0151H41.3127V65.6671C41.3127 66.1949 41.8484 66.6247 42.5082 66.6247H76.1034V71.7465ZM87.6059 64.7095H43.7038V54.0151H46.0991C46.0995 54.0151 46.0995 54.0149 46.0999 54.0149C46.1001 54.0149 46.1006 54.0151 46.1008 54.0151C46.1018 54.0151 46.103 54.0144 46.104 54.0144C46.3149 54.0138 46.5026 53.9577 46.6747 53.8802C46.6973 53.8702 46.724 53.8748 46.746 53.8635C46.7835 53.8442 46.8041 53.8138 46.8382 53.792C46.8998 53.7521 46.9548 53.711 47.0055 53.662C47.0569 53.6128 47.0987 53.5625 47.1359 53.507C47.171 53.4555 47.199 53.4041 47.2217 53.3476C47.2476 53.2834 47.2622 53.2206 47.2708 53.1534C47.2751 53.1204 47.2948 53.0915 47.2948 53.0577V30.4064H87.6063V64.7095H87.6059Z" fill="#E74C3C"/>
<path d="M49.1923 38.5446H55.8836C56.5433 38.5446 57.0805 38.116 57.0805 37.5881C57.0805 37.0603 56.5433 36.6317 55.8836 36.6317H49.1923C48.5325 36.6317 47.9954 37.0603 47.9954 37.5881C47.9954 38.116 48.5325 38.5446 49.1923 38.5446Z" fill="#E74C3C"/>
<path d="M65.1616 38.5446H73.9344C74.5942 38.5446 75.1314 38.116 75.1314 37.5881C75.1314 37.0603 74.5942 36.6317 73.9344 36.6317H65.1616C64.5018 36.6317 63.9646 37.0603 63.9646 37.5881C63.9646 38.116 64.5018 38.5446 65.1616 38.5446Z" fill="#E74C3C"/>
<path d="M60.2802 38.5446H61.3109C61.9706 38.5446 62.5078 38.116 62.5078 37.5881C62.5078 37.0603 61.9706 36.6317 61.3109 36.6317H60.2802C59.6204 36.6317 59.0833 37.0603 59.0833 37.5881C59.0833 38.116 59.6204 38.5446 60.2802 38.5446Z" fill="#E74C3C"/>
<path d="M80.6489 38.5446H84.4732C85.133 38.5446 85.6702 38.116 85.6702 37.5881C85.6702 37.0603 85.133 36.6317 84.4732 36.6317H80.6489C79.9891 36.6317 79.4519 37.0603 79.4519 37.5881C79.4519 38.116 79.9891 38.5446 80.6489 38.5446Z" fill="#E74C3C"/>
<path d="M77.7849 42.6504H84.4732C85.133 42.6504 85.6702 42.2206 85.6702 41.6928C85.6702 41.165 85.133 40.7352 84.4732 40.7352H77.7849C77.1251 40.7352 76.5879 41.165 76.5879 41.6928C76.5879 42.2206 77.1251 42.6504 77.7849 42.6504Z" fill="#E74C3C"/>
<path d="M59.7311 42.6504H68.504C69.1638 42.6504 69.7009 42.2206 69.7009 41.6928C69.7009 41.165 69.1638 40.7352 68.504 40.7352H59.7311C59.0714 40.7352 58.5342 41.165 58.5342 41.6928C58.5342 42.2206 59.0714 42.6504 59.7311 42.6504Z" fill="#E74C3C"/>
<path d="M73.3853 42.6504C74.0451 42.6504 74.5823 42.2206 74.5823 41.6928C74.5823 41.165 74.0451 40.7352 73.3853 40.7352H72.3547C71.6949 40.7352 71.1577 41.165 71.1577 41.6928C71.1577 42.2206 71.6949 42.6504 72.3547 42.6504H73.3853Z" fill="#E74C3C"/>
<path d="M49.1923 42.6504H53.0198C53.6796 42.6504 54.2168 42.2206 54.2168 41.6928C54.2168 41.165 53.6796 40.7352 53.0198 40.7352H49.1923C48.5325 40.7352 47.9954 41.165 47.9954 41.6928C47.9954 42.2206 48.5325 42.6504 49.1923 42.6504Z" fill="#E74C3C"/>
<path d="M49.1923 46.7563H55.8836C56.5433 46.7563 57.0805 46.3266 57.0805 45.7988C57.0805 45.2709 56.5433 44.8412 55.8836 44.8412H49.1923C48.5325 44.8412 47.9954 45.2709 47.9954 45.7988C47.9954 46.3266 48.5325 46.7563 49.1923 46.7563Z" fill="#E74C3C"/>
<path d="M73.9344 44.8412H65.1616C64.5018 44.8412 63.9646 45.2709 63.9646 45.7988C63.9646 46.3266 64.5018 46.7563 65.1616 46.7563H73.9344C74.5942 46.7563 75.1314 46.3266 75.1314 45.7988C75.1314 45.2709 74.5942 44.8412 73.9344 44.8412Z" fill="#E74C3C"/>
<path d="M60.2802 44.8412C59.6204 44.8412 59.0833 45.2709 59.0833 45.7988C59.0833 46.3266 59.6204 46.7563 60.2802 46.7563H61.3109C61.9706 46.7563 62.5078 46.3266 62.5078 45.7988C62.5078 45.2709 61.9706 44.8412 61.3109 44.8412H60.2802Z" fill="#E74C3C"/>
<path d="M84.4735 44.8412H80.6491C79.9893 44.8412 79.4521 45.2709 79.4521 45.7988C79.4521 46.3266 79.9893 46.7563 80.6491 46.7563H84.4735C85.1333 46.7563 85.6705 46.3266 85.6705 45.7988C85.6703 45.2709 85.1333 44.8412 84.4735 44.8412Z" fill="#E74C3C"/>
<path d="M77.7849 50.8622H84.4732C85.133 50.8622 85.6702 50.4324 85.6702 49.9046C85.6702 49.3768 85.133 48.947 84.4732 48.947H77.7849C77.1251 48.947 76.5879 49.3768 76.5879 49.9046C76.5879 50.4324 77.1251 50.8622 77.7849 50.8622Z" fill="#E74C3C"/>
<path d="M59.7311 50.8622H68.504C69.1638 50.8622 69.7009 50.4324 69.7009 49.9046C69.7009 49.3768 69.1638 48.947 68.504 48.947H59.7311C59.0714 48.947 58.5342 49.3768 58.5342 49.9046C58.5342 50.4324 59.0714 50.8622 59.7311 50.8622Z" fill="#E74C3C"/>
<path d="M73.3853 50.8622C74.0451 50.8622 74.5823 50.4324 74.5823 49.9046C74.5823 49.3768 74.0451 48.947 73.3853 48.947H72.3547C71.6949 48.947 71.1577 49.3768 71.1577 49.9046C71.1577 50.4324 71.6949 50.8622 72.3547 50.8622H73.3853Z" fill="#E74C3C"/>
<path d="M49.1923 50.8622H53.0198C53.6796 50.8622 54.2168 50.4324 54.2168 49.9046C54.2168 49.3768 53.6796 48.947 53.0198 48.947H49.1923C48.5325 48.947 47.9954 49.3768 47.9954 49.9046C47.9954 50.4324 48.5325 50.8622 49.1923 50.8622Z" fill="#E74C3C"/>
<path d="M49.1923 54.968H55.8836C56.5433 54.968 57.0805 54.5383 57.0805 54.0104C57.0805 53.4826 56.5433 53.0529 55.8836 53.0529H49.1923C48.5325 53.0529 47.9954 53.4826 47.9954 54.0104C47.9954 54.5383 48.5325 54.968 49.1923 54.968Z" fill="#E74C3C"/>
<path d="M73.9344 53.0529H65.1616C64.5018 53.0529 63.9646 53.4826 63.9646 54.0104C63.9646 54.5383 64.5018 54.968 65.1616 54.968H73.9344C74.5942 54.968 75.1314 54.5383 75.1314 54.0104C75.1314 53.4826 74.5942 53.0529 73.9344 53.0529Z" fill="#E74C3C"/>
<path d="M60.2802 53.0529C59.6204 53.0529 59.0833 53.4826 59.0833 54.0104C59.0833 54.5383 59.6204 54.968 60.2802 54.968H61.3109C61.9706 54.968 62.5078 54.5383 62.5078 54.0104C62.5078 53.4826 61.9706 53.0529 61.3109 53.0529H60.2802Z" fill="#E74C3C"/>
<path d="M84.4735 53.0529H80.6491C79.9893 53.0529 79.4521 53.4826 79.4521 54.0104C79.4521 54.5383 79.9893 54.968 80.6491 54.968H84.4735C85.1333 54.968 85.6705 54.5383 85.6705 54.0104C85.6705 53.4826 85.1333 53.0529 84.4735 53.0529Z" fill="#E74C3C"/>
<path d="M77.7849 59.0715H84.4732C85.133 59.0715 85.6702 58.6418 85.6702 58.1139C85.6702 57.5861 85.133 57.1564 84.4732 57.1564H77.7849C77.1251 57.1564 76.5879 57.5861 76.5879 58.1139C76.5879 58.6418 77.1251 59.0715 77.7849 59.0715Z" fill="#E74C3C"/>
<path d="M59.7311 59.0715H68.504C69.1638 59.0715 69.7009 58.6418 69.7009 58.1139C69.7009 57.5861 69.1638 57.1564 68.504 57.1564H59.7311C59.0714 57.1564 58.5342 57.5861 58.5342 58.1139C58.5342 58.6418 59.0714 59.0715 59.7311 59.0715Z" fill="#E74C3C"/>
<path d="M73.3853 57.1564H72.3547C71.6949 57.1564 71.1577 57.5861 71.1577 58.1139C71.1577 58.6418 71.6949 59.0715 72.3547 59.0715H73.3853C74.0451 59.0715 74.5823 58.6418 74.5823 58.1139C74.5823 57.5861 74.0451 57.1564 73.3853 57.1564Z" fill="#E74C3C"/>
<path d="M49.1923 59.0715H53.0198C53.6796 59.0715 54.2168 58.6418 54.2168 58.1139C54.2168 57.5861 53.6796 57.1564 53.0198 57.1564H49.1923C48.5325 57.1564 47.9954 57.5861 47.9954 58.1139C47.9954 58.6418 48.5325 59.0715 49.1923 59.0715Z" fill="#E74C3C"/>
<path d="M36.1993 55.3862C35.3264 54.5221 33.728 54.3865 32.6464 55.0849L20.2505 63.0817C20.2496 63.0824 20.2492 63.0832 20.2482 63.0837C20.248 63.0839 20.2476 63.0839 20.2474 63.084C20.242 63.0873 20.24 63.0926 20.2351 63.096C20.1266 63.1685 20.0332 63.2531 19.9628 63.3503L17.0156 67.4703C16.677 67.9841 16.7544 68.6077 17.2113 69.0585C17.5573 69.3995 18.0682 69.5886 18.6141 69.5886C18.7907 69.5886 18.9718 69.5699 19.1512 69.5278L24.7595 68.0822C24.8995 68.0449 25.0295 67.9887 25.1435 67.9164L34.3566 61.9735C34.3576 61.9729 34.359 61.9732 34.3601 61.9725C34.3617 61.9716 34.3625 61.9697 34.3642 61.9688L37.5335 59.9243C38.059 59.5833 38.389 59.0998 38.4604 58.5626C38.5319 58.0231 38.3364 57.4953 37.9087 57.0726L36.1993 55.3862ZM19.8695 67.3324L21.1721 65.5134L22.3641 66.6888L19.8695 67.3324ZM24.5695 65.8275L22.6916 63.9759L30.1063 59.2758L31.9267 61.0817L24.5695 65.8275ZM33.7888 59.8808L31.9809 58.0874L34.3412 56.5913L36.0316 58.434L33.7888 59.8808Z" fill="#E74C3C"/>
</svg>
