<svg width="90" height="90" viewBox="0 0 90 90" fill="none" xmlns="http://www.w3.org/2000/svg">
<path d="M75.9375 59.3438V11.25C75.9375 10.877 75.7893 10.5194 75.5256 10.2556C75.2619 9.99191 74.9042 9.84375 74.5312 9.84375H67.5V8.4375C67.5 7.31862 67.0555 6.24556 66.2644 5.45439C65.4732 4.66322 64.4001 4.21875 63.2812 4.21875C62.1624 4.21875 61.0893 4.66322 60.2981 5.45439C59.507 6.24556 59.0625 7.31862 59.0625 8.4375V9.84375H53.4375V8.4375C53.4375 7.31862 52.993 6.24556 52.2019 5.45439C51.4107 4.66322 50.3376 4.21875 49.2188 4.21875C48.0999 4.21875 47.0268 4.66322 46.2356 5.45439C45.4445 6.24556 45 7.31862 45 8.4375V9.84375H33.75V8.4375C33.75 7.31862 33.3055 6.24556 32.5144 5.45439C31.7232 4.66322 30.6501 4.21875 29.5312 4.21875C28.4124 4.21875 27.3393 4.66322 26.5481 5.45439C25.757 6.24556 25.3125 7.31862 25.3125 8.4375V9.84375H19.6875V8.4375C19.6875 7.31862 19.243 6.24556 18.4519 5.45439C17.6607 4.66322 16.5876 4.21875 15.4688 4.21875C14.3499 4.21875 13.2768 4.66322 12.4856 5.45439C11.6945 6.24556 11.25 7.31862 11.25 8.4375V9.84375H4.21875C3.84579 9.84375 3.4881 9.99191 3.22438 10.2556C2.96066 10.5194 2.8125 10.877 2.8125 11.25V73.125C2.8125 73.498 2.96066 73.8556 3.22438 74.1194C3.4881 74.3831 3.84579 74.5312 4.21875 74.5312H59.1342C59.3948 77.1191 60.368 79.5839 61.9455 81.6518C63.5231 83.7197 65.6432 85.3095 68.0702 86.2446C70.4972 87.1796 73.136 87.4233 75.6932 86.9485C78.2504 86.4737 80.6258 85.299 82.5554 83.555C84.4849 81.8109 85.893 79.566 86.6231 77.0696C87.3532 74.5733 87.3766 71.9234 86.6908 69.4145C86.0051 66.9056 84.6369 64.6361 82.7385 62.8582C80.8402 61.0803 78.4859 59.8638 75.9375 59.3438ZM61.875 8.4375C61.875 8.06454 62.0232 7.70685 62.2869 7.44313C62.5506 7.17941 62.9083 7.03125 63.2812 7.03125C63.6542 7.03125 64.0119 7.17941 64.2756 7.44313C64.5393 7.70685 64.6875 8.06454 64.6875 8.4375V14.0625H61.875V8.4375ZM47.8125 8.4375C47.8125 8.06454 47.9607 7.70685 48.2244 7.44313C48.4881 7.17941 48.8458 7.03125 49.2188 7.03125C49.5917 7.03125 49.9494 7.17941 50.2131 7.44313C50.4768 7.70685 50.625 8.06454 50.625 8.4375V14.0625H47.8125V8.4375ZM28.125 8.4375C28.125 8.06454 28.2732 7.70685 28.5369 7.44313C28.8006 7.17941 29.1583 7.03125 29.5312 7.03125C29.9042 7.03125 30.2619 7.17941 30.5256 7.44313C30.7893 7.70685 30.9375 8.06454 30.9375 8.4375V14.0625H28.125V8.4375ZM14.0625 11.25V8.4375C14.0625 8.06454 14.2107 7.70685 14.4744 7.44313C14.7381 7.17941 15.0958 7.03125 15.4688 7.03125C15.8417 7.03125 16.1994 7.17941 16.4631 7.44313C16.7268 7.70685 16.875 8.06454 16.875 8.4375V14.0625H14.0625V11.25ZM5.625 12.6562H11.25V15.4688C11.25 15.8417 11.3982 16.1994 11.6619 16.4631C11.9256 16.7268 12.2833 16.875 12.6562 16.875H18.2812C18.6542 16.875 19.0119 16.7268 19.2756 16.4631C19.5393 16.1994 19.6875 15.8417 19.6875 15.4688V12.6562H25.3125V15.4688C25.3125 15.8417 25.4607 16.1994 25.7244 16.4631C25.9881 16.7268 26.3458 16.875 26.7188 16.875H32.3438C32.7167 16.875 33.0744 16.7268 33.3381 16.4631C33.6018 16.1994 33.75 15.8417 33.75 15.4688V12.6562H45V15.4688C45 15.8417 45.1482 16.1994 45.4119 16.4631C45.6756 16.7268 46.0333 16.875 46.4062 16.875H52.0312C52.4042 16.875 52.7619 16.7268 53.0256 16.4631C53.2893 16.1994 53.4375 15.8417 53.4375 15.4688V12.6562H59.0625V15.4688C59.0625 15.8417 59.2107 16.1994 59.4744 16.4631C59.7381 16.7268 60.0958 16.875 60.4688 16.875H66.0938C66.4667 16.875 66.8244 16.7268 67.0881 16.4631C67.3518 16.1994 67.5 15.8417 67.5 15.4688V12.6562H73.125V18.2812H5.625V12.6562ZM5.625 71.7188V21.0938H73.125V59.0625C69.6402 59.0669 66.2809 60.3633 63.6966 62.7011C61.1124 65.0389 59.4868 68.2519 59.1342 71.7188H5.625ZM73.125 84.375C70.9 84.375 68.7249 83.7152 66.8748 82.479C65.0248 81.2429 63.5828 79.4859 62.7314 77.4302C61.8799 75.3745 61.6571 73.1125 62.0912 70.9302C62.5252 68.7479 63.5967 66.7434 65.1701 65.1701C66.7434 63.5967 68.7479 62.5252 70.9302 62.0912C73.1125 61.6571 75.3745 61.8799 77.4302 62.7314C79.4859 63.5828 81.2429 65.0248 82.479 66.8748C83.7152 68.7249 84.375 70.9 84.375 73.125C84.3717 76.1077 83.1853 78.9672 81.0763 81.0763C78.9672 83.1853 76.1077 84.3717 73.125 84.375Z" fill="#E74C3C"/>
<path d="M70.0312 66.6562L67.7812 68.3437L72 73.9688C72.2172 74.258 72.5375 74.4524 72.8944 74.5116L81.3319 75.9178L81.7931 73.1447L73.9181 71.8298L70.0312 66.6562Z" fill="#E74C3C"/>
<path d="M56.25 28.125C55.1311 28.125 54.0581 28.5695 53.2669 29.3606C52.4757 30.1518 52.0312 31.2249 52.0312 32.3438C52.0312 32.3592 52.0312 32.3733 52.0312 32.3887L47.0841 35.3573C46.9284 35.4508 46.7923 35.5735 46.6833 35.7187L39.0698 45.8691L30.3441 39.638C30.0456 39.4258 29.6762 39.3384 29.3143 39.3943C28.9525 39.4502 28.6267 39.6451 28.4063 39.9375L20.7675 50.1244L14.0625 45.6539V26.7188H11.25V64.6875C11.25 65.0605 11.3982 65.4181 11.6619 65.6819C11.9256 65.9456 12.2833 66.0938 12.6562 66.0938H57.6562V63.2812H14.0625V49.0331L20.3133 53.2013C20.6124 53.4008 20.9766 53.4781 21.331 53.4175C21.6854 53.3568 22.0031 53.1627 22.2188 52.875L29.8322 42.7247L38.558 48.9558C38.8567 49.1693 39.2271 49.2575 39.59 49.2015C39.9529 49.1455 40.2795 48.9498 40.5 48.6562L48.773 37.627L53.0494 35.0606C53.5072 35.5997 54.0934 36.0148 54.7539 36.2676C55.4145 36.5203 56.1281 36.6026 56.8288 36.5068C57.5295 36.4111 58.1949 36.1403 58.7633 35.7196C59.3318 35.2988 59.7852 34.7416 60.0815 34.0995C60.3779 33.4573 60.5077 32.7508 60.4589 32.0453C60.4102 31.3397 60.1845 30.6578 59.8027 30.0624C59.4209 29.4671 58.8953 28.9775 58.2744 28.6389C57.6535 28.3003 56.9572 28.1235 56.25 28.125ZM56.25 33.75C55.9719 33.75 55.7 33.6675 55.4687 33.513C55.2375 33.3585 55.0572 33.1389 54.9508 32.8819C54.8444 32.6249 54.8165 32.3422 54.8708 32.0694C54.925 31.7966 55.059 31.546 55.2556 31.3494C55.4523 31.1527 55.7029 31.0188 55.9757 30.9645C56.2484 30.9103 56.5312 30.9381 56.7881 31.0445C57.0451 31.151 57.2647 31.3312 57.4193 31.5625C57.5738 31.7937 57.6562 32.0656 57.6562 32.3438C57.6562 32.7167 57.5081 33.0744 57.2444 33.3381C56.9806 33.6018 56.623 33.75 56.25 33.75Z" fill="#E74C3C"/>
<path d="M42.1875 52.0312H36.5625V54.8438H42.1875V52.0312Z" fill="#E74C3C"/>
<path d="M32.3438 33.75H26.7188V36.5625H32.3438V33.75Z" fill="#E74C3C"/>
<path d="M23.9062 56.25H18.2812V59.0625H23.9062V56.25Z" fill="#E74C3C"/>
</svg>
