<svg width="90" height="90" viewBox="0 0 90 90" fill="none" xmlns="http://www.w3.org/2000/svg">
<path d="M19.6875 71.7188H16.875V74.5312H19.6875V71.7188Z" fill="#E74C3C"/>
<path d="M78.75 11.25H19.6875C18.5686 11.25 17.4956 11.6945 16.7044 12.4856C15.9132 13.2768 15.4688 14.3499 15.4688 15.4688V35.1562H9.84375C8.72487 35.1562 7.65181 35.6007 6.86064 36.3919C6.06947 37.1831 5.625 38.2561 5.625 39.375V74.5312C5.625 75.6501 6.06947 76.7232 6.86064 77.5144C7.65181 78.3055 8.72487 78.75 9.84375 78.75H26.7188C27.8376 78.75 28.9107 78.3055 29.7019 77.5144C30.493 76.7232 30.9375 75.6501 30.9375 74.5312V66.0938H40.7812V69.923L36.7636 76.6195C36.6354 76.8329 36.5662 77.0764 36.5629 77.3253C36.5596 77.5742 36.6225 77.8195 36.745 78.0361C36.8676 78.2528 37.0454 78.433 37.2604 78.5584C37.4754 78.6838 37.7198 78.75 37.9688 78.75H60.4688C60.7177 78.75 60.9621 78.6838 61.1771 78.5584C61.3921 78.433 61.5699 78.2528 61.6925 78.0361C61.815 77.8195 61.8779 77.5742 61.8746 77.3253C61.8714 77.0764 61.8021 76.8329 61.6739 76.6195L57.6562 69.923V66.0938H78.75C79.8689 66.0938 80.9419 65.6493 81.7331 64.8581C82.5243 64.0669 82.9688 62.9939 82.9688 61.875V15.4688C82.9688 14.3499 82.5243 13.2768 81.7331 12.4856C80.9419 11.6945 79.8689 11.25 78.75 11.25ZM28.125 74.5312C28.125 74.9042 27.9768 75.2619 27.7131 75.5256C27.4494 75.7893 27.0917 75.9375 26.7188 75.9375H9.84375C9.47079 75.9375 9.1131 75.7893 8.84938 75.5256C8.58566 75.2619 8.4375 74.9042 8.4375 74.5312V70.3125H28.125V74.5312ZM28.125 67.5H8.4375V43.5938H28.125V67.5ZM28.125 40.7812H8.4375V39.375C8.4375 39.002 8.58566 38.6444 8.84938 38.3806C9.1131 38.1169 9.47079 37.9688 9.84375 37.9688H26.7188C27.0917 37.9688 27.4494 38.1169 27.7131 38.3806C27.9768 38.6444 28.125 39.002 28.125 39.375V40.7812ZM26.7188 35.1562H23.9062V19.6875H30.9375V39.375C30.9375 38.2561 30.493 37.1831 29.7019 36.3919C28.9107 35.6007 27.8376 35.1562 26.7188 35.1562ZM57.9839 75.9375H40.4536L43.3927 71.0367C43.5242 70.818 43.5937 70.5677 43.5938 70.3125V66.0938H54.8438V70.3125C54.8438 70.5677 54.9133 70.818 55.0448 71.0367L57.9839 75.9375ZM80.1562 61.875C80.1562 62.248 80.0081 62.6056 79.7444 62.8694C79.4806 63.1331 79.123 63.2812 78.75 63.2812H30.9375V54.8438H80.1562V61.875ZM80.1562 52.0312H30.9375V47.8125H32.3438C32.7167 47.8125 33.0744 47.6643 33.3381 47.4006C33.6018 47.1369 33.75 46.7792 33.75 46.4062V18.2812C33.75 17.9083 33.6018 17.5506 33.3381 17.2869C33.0744 17.0232 32.7167 16.875 32.3438 16.875H22.5C22.127 16.875 21.7694 17.0232 21.5056 17.2869C21.2419 17.5506 21.0938 17.9083 21.0938 18.2812V35.1562H18.2812V15.4688C18.2812 15.0958 18.4294 14.7381 18.6931 14.4744C18.9569 14.2107 19.3145 14.0625 19.6875 14.0625H78.75C79.123 14.0625 79.4806 14.2107 79.7444 14.4744C80.0081 14.7381 80.1562 15.0958 80.1562 15.4688V52.0312Z" fill="#E74C3C"/>
<path d="M50.625 57.6562H47.8125V60.4688H50.625V57.6562Z" fill="#E74C3C"/>
<path d="M18.2813 60.4688C19.6719 60.4688 21.0313 60.0564 22.1876 59.2838C23.3439 58.5112 24.2451 57.413 24.7773 56.1282C25.3095 54.8435 25.4487 53.4297 25.1774 52.0658C24.9061 50.7018 24.2364 49.449 23.2531 48.4657C22.2698 47.4823 21.0169 46.8127 19.653 46.5414C18.2891 46.2701 16.8753 46.4093 15.5905 46.9415C14.3057 47.4737 13.2076 48.3749 12.435 49.5312C11.6624 50.6874 11.25 52.0469 11.25 53.4375C11.2522 55.3016 11.9937 57.0887 13.3119 58.4069C14.63 59.725 16.4171 60.4665 18.2813 60.4688ZM18.2813 49.2188C19.1156 49.2188 19.9313 49.4662 20.6251 49.9297C21.3188 50.3933 21.8596 51.0522 22.1789 51.8231C22.4982 52.5939 22.5817 53.4422 22.4189 54.2605C22.2562 55.0789 21.8544 55.8306 21.2644 56.4206C20.6744 57.0106 19.9226 57.4124 19.1043 57.5752C18.2859 57.738 17.4377 57.6544 16.6668 57.3351C15.8959 57.0158 15.2371 56.4751 14.7735 55.7813C14.3099 55.0875 14.0625 54.2719 14.0625 53.4375C14.0625 52.3186 14.507 51.2456 15.2981 50.4544C16.0893 49.6632 17.1624 49.2188 18.2813 49.2188Z" fill="#E74C3C"/>
<path d="M25.3125 61.875H11.25V64.6875H25.3125V61.875Z" fill="#E74C3C"/>
<path d="M49.2188 16.875C46.7156 16.875 44.2686 17.6173 42.1873 19.008C40.106 20.3986 38.4838 22.3753 37.5259 24.6879C36.568 27.0005 36.3173 29.5453 36.8057 32.0004C37.294 34.4554 38.4994 36.7106 40.2694 38.4806C42.0394 40.2506 44.2946 41.456 46.7496 41.9443C49.2047 42.4327 51.7495 42.182 54.0621 41.2241C56.3747 40.2662 58.3514 38.644 59.742 36.5627C61.1327 34.4814 61.875 32.0344 61.875 29.5312C61.8713 26.1757 60.5367 22.9587 58.164 20.586C55.7913 18.2133 52.5743 16.8787 49.2188 16.875ZM49.2188 39.375C47.2718 39.375 45.3687 38.7977 43.7499 37.716C42.1311 36.6344 40.8694 35.097 40.1243 33.2983C39.3793 31.4996 39.1843 29.5203 39.5642 27.6108C39.944 25.7013 40.8815 23.9473 42.2582 22.5707C43.6348 21.194 45.3888 20.2565 47.2983 19.8766C49.2078 19.4968 51.1871 19.6918 52.9858 20.4368C54.7845 21.1819 56.3219 22.4436 57.4035 24.0624C58.4852 25.6812 59.0625 27.5843 59.0625 29.5312C59.0592 32.1409 58.021 34.6428 56.1756 36.4881C54.3303 38.3335 51.8285 39.3717 49.2188 39.375Z" fill="#E74C3C"/>
<path d="M60.4688 45H37.9688V47.8125H60.4688V45Z" fill="#E74C3C"/>
<path d="M75.9375 16.875H66.0938C65.7208 16.875 65.3631 17.0232 65.0994 17.2869C64.8357 17.5506 64.6875 17.9083 64.6875 18.2812V30.9375C64.6875 31.3105 64.8357 31.6681 65.0994 31.9319C65.3631 32.1956 65.7208 32.3438 66.0938 32.3438H75.9375C76.3105 32.3438 76.6681 32.1956 76.9319 31.9319C77.1956 31.6681 77.3438 31.3105 77.3438 30.9375V18.2812C77.3438 17.9083 77.1956 17.5506 76.9319 17.2869C76.6681 17.0232 76.3105 16.875 75.9375 16.875ZM74.5312 29.5312H67.5V19.6875H74.5312V29.5312Z" fill="#E74C3C"/>
<path d="M75.9375 35.1562H66.0938C65.7208 35.1562 65.3631 35.3044 65.0994 35.5681C64.8357 35.8319 64.6875 36.1895 64.6875 36.5625V46.4062C64.6875 46.7792 64.8357 47.1369 65.0994 47.4006C65.3631 47.6643 65.7208 47.8125 66.0938 47.8125H75.9375C76.3105 47.8125 76.6681 47.6643 76.9319 47.4006C77.1956 47.1369 77.3438 46.7792 77.3438 46.4062V36.5625C77.3438 36.1895 77.1956 35.8319 76.9319 35.5681C76.6681 35.3044 76.3105 35.1562 75.9375 35.1562ZM74.5312 45H67.5V37.9688H74.5312V45Z" fill="#E74C3C"/>
</svg>
