<svg width="90" height="90" viewBox="0 0 90 90" fill="none" xmlns="http://www.w3.org/2000/svg">
<path d="M72.92 50.0493H65.3647C64.8202 50.0493 64.38 49.6091 64.38 49.0646C64.38 48.5201 64.8202 48.08 65.3647 48.08H72.92C79.5654 48.08 84.9712 42.6742 84.9712 36.0288C84.9712 32.1167 83.0521 28.4321 79.8372 26.1714C79.5851 25.9941 79.4305 25.7086 79.4197 25.4004C79.0947 16.2165 71.6478 9.02259 62.4668 9.02259C58.0132 9.02259 53.7999 10.7418 50.6047 13.8632C50.3802 14.0837 50.0631 14.1851 49.7539 14.13C49.4448 14.0778 49.1769 13.8819 49.0361 13.6003C45.6499 6.85241 38.8715 2.65974 31.3478 2.65974C20.4289 2.65974 11.5463 11.5423 11.5463 22.4612C11.5463 23.1396 11.5857 23.8515 11.6625 24.5743C11.7039 24.9642 11.5089 25.3423 11.1672 25.5353C7.38123 27.674 5.02888 31.6953 5.02888 36.0288C5.02888 42.6742 10.4346 48.08 17.0791 48.08H24.6354C25.1789 48.08 25.62 48.5201 25.62 49.0646C25.62 49.6091 25.1789 50.0493 24.6354 50.0493H17.0791C9.34857 50.0493 3.05957 43.7593 3.05957 36.0288C3.05957 31.201 5.56749 26.707 9.64495 24.1499C9.59966 23.5758 9.57701 23.0096 9.57701 22.4612C9.57701 10.4563 19.3428 0.69043 31.3478 0.69043C39.1905 0.69043 46.2939 4.83091 50.1862 11.5817C53.6158 8.65335 57.9295 7.05426 62.4688 7.05426C72.5546 7.05426 80.7647 14.8311 81.3653 24.849C84.8668 27.4967 86.9415 31.6401 86.9415 36.0297C86.9415 43.7593 80.6515 50.0493 72.92 50.0493Z" fill="#E74C3C"/>
<path d="M71.0039 63.0133V60.6127C71.0039 57.8074 68.7225 55.526 65.9182 55.526H54.6281V41.1953L58.7371 36.0347C59.5839 36.5044 60.5557 36.7732 61.5896 36.7732C64.8449 36.7732 67.4926 34.1255 67.4926 30.8702C67.4926 27.6149 64.8449 24.9672 61.5896 24.9672C58.3343 24.9672 55.6866 27.6149 55.6866 30.8702C55.6866 32.3816 56.2626 33.7572 57.2 34.8029L52.8734 40.2372C52.7346 40.4115 52.6588 40.6281 52.6588 40.8506V55.525H45.7514V30.3365C45.7514 30.114 45.6756 29.8973 45.5368 29.7231L41.2102 24.2887C42.1476 23.243 42.7236 21.8675 42.7236 20.356C42.7236 17.1007 40.0759 14.453 36.8206 14.453C33.5653 14.453 30.9176 17.1007 30.9176 20.356C30.9176 23.6113 33.5653 26.259 36.8206 26.259C37.8555 26.259 38.8273 25.9892 39.6741 25.5205L43.7821 30.6811V55.526H37.3405V47.1593C37.3405 46.9358 37.2647 46.7202 37.1258 46.5459L32.8002 41.1126C33.7376 40.0669 34.3137 38.6913 34.3137 37.1798C34.3137 33.9246 31.6659 31.2768 28.4106 31.2768C25.1554 31.2768 22.5076 33.9246 22.5076 37.1798C22.5076 40.4351 25.1554 43.0829 28.4106 43.0829C29.4455 43.0829 30.4174 42.8141 31.2632 42.3444L35.3712 47.504V55.526H24.0821C21.2778 55.526 18.9954 57.8074 18.9954 60.6127V63.0133C18.9954 64.702 19.8313 66.1898 21.1006 67.1154C19.8304 68.0409 18.9954 69.5288 18.9954 71.2165V73.618C18.9954 75.3057 19.8313 76.7936 21.1006 77.7191C19.8304 78.6447 18.9954 80.1325 18.9954 81.8212V84.2228C18.9954 87.0271 21.2768 89.3085 24.0821 89.3085H65.9182C68.7225 89.3085 71.0039 87.0271 71.0039 84.2228V81.8212C71.0039 80.1325 70.1679 78.6447 68.8987 77.7191C70.1679 76.7936 71.0039 75.3057 71.0039 73.618V71.2165C71.0039 69.5288 70.1679 68.0409 68.8987 67.1154C70.1679 66.1898 71.0039 64.702 71.0039 63.0133ZM61.5906 26.9365C63.7598 26.9365 65.5243 28.701 65.5243 30.8702C65.5243 33.0394 63.7598 34.8039 61.5906 34.8039C59.4214 34.8039 57.6569 33.0394 57.6569 30.8702C57.6569 28.701 59.4214 26.9365 61.5906 26.9365ZM32.8879 20.356C32.8879 18.1868 34.6524 16.4223 36.8216 16.4223C38.9908 16.4223 40.7553 18.1868 40.7553 20.356C40.7553 22.5252 38.9908 24.2897 36.8216 24.2897C34.6524 24.2897 32.8879 22.5252 32.8879 20.356ZM24.4769 37.1789C24.4769 35.0097 26.2414 33.2452 28.4106 33.2452C30.5798 33.2452 32.3443 35.0097 32.3443 37.1789C32.3443 39.3481 30.5798 41.1126 28.4106 41.1126C26.2414 41.1126 24.4769 39.3481 24.4769 37.1789ZM69.0346 81.8222V84.2238C69.0346 85.942 67.6364 87.3402 65.9182 87.3402H24.0821C22.3629 87.3402 20.9647 85.942 20.9647 84.2238V81.8222C20.9647 80.103 22.3629 78.7048 24.0821 78.7048H65.9182C67.6364 78.7038 69.0346 80.102 69.0346 81.8222ZM69.0346 63.0133C69.0346 64.7325 67.6364 66.1307 65.9182 66.1307H58.5273C57.9828 66.1307 57.5427 66.5709 57.5427 67.1154C57.5427 67.6599 57.9828 68.1 58.5273 68.1H65.9182C67.6364 68.1 69.0346 69.4982 69.0346 71.2165V73.618C69.0346 75.3363 67.6364 76.7345 65.9182 76.7345H24.0821C22.3629 76.7345 20.9647 75.3363 20.9647 73.618V71.2165C20.9647 69.4982 22.3629 68.1 24.0821 68.1H46.6396C47.1841 68.1 47.6242 67.6599 47.6242 67.1154C47.6242 66.5709 47.1841 66.1307 46.6396 66.1307H24.0821C22.3629 66.1307 20.9647 64.7325 20.9647 63.0133V60.6127C20.9647 58.8935 22.3629 57.4953 24.0821 57.4953H65.9182C67.6364 57.4953 69.0346 58.8935 69.0346 60.6127V63.0133Z" fill="#E74C3C"/>
<path d="M54.1663 68.1001H51.3384C50.7939 68.1001 50.3538 67.6599 50.3538 67.1154C50.3538 66.5709 50.7939 66.1307 51.3384 66.1307H54.1663C54.7109 66.1307 55.151 66.5709 55.151 67.1154C55.151 67.6599 54.7099 68.1001 54.1663 68.1001Z" fill="#E74C3C"/>
<path d="M27.2693 73.4023H25.5816C25.038 73.4023 24.5969 72.9622 24.5969 72.4176C24.5969 71.8731 25.038 71.433 25.5816 71.433H27.2693C27.8128 71.433 28.2539 71.8731 28.2539 72.4176C28.2539 72.9622 27.8128 73.4023 27.2693 73.4023Z" fill="#E74C3C"/>
<path d="M33.3398 73.4023H31.6521C31.1086 73.4023 30.6675 72.9622 30.6675 72.4176C30.6675 71.8731 31.1086 71.433 31.6521 71.433H33.3398C33.8834 71.433 34.3245 71.8731 34.3245 72.4176C34.3245 72.9622 33.8834 73.4023 33.3398 73.4023Z" fill="#E74C3C"/>
<path d="M39.4102 73.4023H37.7224C37.1789 73.4023 36.7378 72.9622 36.7378 72.4176C36.7378 71.8731 37.1789 71.433 37.7224 71.433H39.4102C39.9537 71.433 40.3948 71.8731 40.3948 72.4176C40.3948 72.9622 39.9537 73.4023 39.4102 73.4023Z" fill="#E74C3C"/>
<path d="M27.2693 83.9156H25.5816C25.038 83.9156 24.5969 83.4755 24.5969 82.9309C24.5969 82.3864 25.038 81.9463 25.5816 81.9463H27.2693C27.8128 81.9463 28.2539 82.3864 28.2539 82.9309C28.2539 83.4755 27.8128 83.9156 27.2693 83.9156Z" fill="#E74C3C"/>
<path d="M33.3398 83.9156H31.6521C31.1086 83.9156 30.6675 83.4755 30.6675 82.9309C30.6675 82.3864 31.1086 81.9463 31.6521 81.9463H33.3398C33.8834 81.9463 34.3245 82.3864 34.3245 82.9309C34.3245 83.4755 33.8834 83.9156 33.3398 83.9156Z" fill="#E74C3C"/>
<path d="M39.4102 83.9156H37.7224C37.1789 83.9156 36.7378 83.4755 36.7378 82.9309C36.7378 82.3864 37.1789 81.9463 37.7224 81.9463H39.4102C39.9537 81.9463 40.3948 82.3864 40.3948 82.9309C40.3948 83.4755 39.9537 83.9156 39.4102 83.9156Z" fill="#E74C3C"/>
<path d="M64.6431 73.4023H51.3384C50.7939 73.4023 50.3538 72.9622 50.3538 72.4176C50.3538 71.8731 50.7939 71.433 51.3384 71.433H64.6441C65.1886 71.433 65.6287 71.8731 65.6287 72.4176C65.6287 72.9622 65.1876 73.4023 64.6431 73.4023Z" fill="#E74C3C"/>
<path d="M64.6431 83.9156H51.3384C50.7939 83.9156 50.3538 83.4755 50.3538 82.9309C50.3538 82.3864 50.7939 81.9463 51.3384 81.9463H64.6441C65.1886 81.9463 65.6287 82.3864 65.6287 82.9309C65.6287 83.4755 65.1876 83.9156 64.6431 83.9156Z" fill="#E74C3C"/>
<path d="M27.2693 62.8883H25.5816C25.038 62.8883 24.5969 62.4481 24.5969 61.9036C24.5969 61.3591 25.038 60.9189 25.5816 60.9189H27.2693C27.8128 60.9189 28.2539 61.3591 28.2539 61.9036C28.2539 62.4481 27.8128 62.8883 27.2693 62.8883Z" fill="#E74C3C"/>
<path d="M33.3398 62.8883H31.6521C31.1086 62.8883 30.6675 62.4481 30.6675 61.9036C30.6675 61.3591 31.1086 60.9189 31.6521 60.9189H33.3398C33.8834 60.9189 34.3245 61.3591 34.3245 61.9036C34.3245 62.4481 33.8834 62.8883 33.3398 62.8883Z" fill="#E74C3C"/>
<path d="M39.4102 62.8883H37.7224C37.1789 62.8883 36.7378 62.4481 36.7378 61.9036C36.7378 61.3591 37.1789 60.9189 37.7224 60.9189H39.4102C39.9537 60.9189 40.3948 61.3591 40.3948 61.9036C40.3948 62.4481 39.9537 62.8883 39.4102 62.8883Z" fill="#E74C3C"/>
<path d="M64.6431 62.8883H51.3384C50.7939 62.8883 50.3538 62.4481 50.3538 61.9036C50.3538 61.3591 50.7939 60.9189 51.3384 60.9189H64.6441C65.1886 60.9189 65.6287 61.3591 65.6287 61.9036C65.6287 62.4481 65.1876 62.8883 64.6431 62.8883Z" fill="#E74C3C"/>
</svg>
